<?xml version="1.0" encoding="UTF-8" standalone="no"?>
<!-- Generator: Adobe Illustrator 15.1.0, SVG Export Plug-In . SVG Version: 6.00 Build 0)  -->

<svg
   xmlns:dc="http://purl.org/dc/elements/1.1/"
   xmlns:cc="http://creativecommons.org/ns#"
   xmlns:rdf="http://www.w3.org/1999/02/22-rdf-syntax-ns#"
   xmlns:svg="http://www.w3.org/2000/svg"
   xmlns="http://www.w3.org/2000/svg"
   xmlns:sodipodi="http://sodipodi.sourceforge.net/DTD/sodipodi-0.dtd"
   xmlns:inkscape="http://www.inkscape.org/namespaces/inkscape"
   version="1.1"
   x="0px"
   y="0px"
   width="54px"
   height="30px"
   viewBox="0 0 54 30"
   enable-background="new 0 0 54 30"
   xml:space="preserve"
   id="svg2"
   inkscape:version="0.48.3.1 r9886"
   sodipodi:docname="ic-battery-charge-60-green.svg"><metadata
   id="metadata761"><rdf:RDF><cc:Work
       rdf:about=""><dc:format>image/svg+xml</dc:format><dc:type
         rdf:resource="http://purl.org/dc/dcmitype/StillImage" /><dc:title /></cc:Work></rdf:RDF></metadata><defs
   id="defs759" /><sodipodi:namedview
   pagecolor="#ffffff"
   bordercolor="#666666"
   borderopacity="1"
   objecttolerance="10"
   gridtolerance="10"
   guidetolerance="10"
   inkscape:pageopacity="0"
   inkscape:pageshadow="2"
   inkscape:window-width="902"
   inkscape:window-height="843"
   id="namedview757"
   showgrid="false"
   inkscape:zoom="14.665918"
   inkscape:cx="33.925308"
   inkscape:cy="20.296999"
   inkscape:window-x="1420"
   inkscape:window-y="59"
   inkscape:window-maximized="0"
   inkscape:current-layer="g59" />
<g
   id="_x31_00_x25__charge_1_"
   display="none">
	<g
   display="inline"
   id="g5">
		<path
   fill="#767875"
   d="M18.482,21.566c-0.169,0-0.33-0.033-0.482-0.083V23c0,1.1,0.9,2,2,2h2c1.1,0,2-0.9,2-2v-1.865    c-0.83,0.279-1.776,0.432-2.833,0.432H18.482z"
   id="path7" />
		<path
   fill="#767875"
   d="M26,19.993V23c0,1.1,0.9,2,2,2h2c1.1,0,2-0.9,2-2v-4.643h-4.771C26.936,18.996,26.514,19.536,26,19.993z"
   id="path9" />
		<path
   fill="#767875"
   d="M34,23c0,1.1,0.9,2,2,2h2c1.1,0,2-0.9,2-2v-4.643h-6V23z"
   id="path11" />
		<path
   fill="#767875"
   d="M15.239,9.875H16V7c0-0.138-0.014-0.272-0.041-0.402C15.772,5.689,14.962,5,14,5h-2    c-0.962,0-1.772,0.689-1.959,1.598C10.014,6.728,10,6.862,10,7v8v8c0,1.1,0.9,2,2,2h2c1.1,0,2-0.9,2-2v-2.944h-0.761    c-1.583,0-2.239-1.806-2.239-2.771c0-0.651,0.303-1.68,0.982-2.284c0.012-0.011,0.019-0.025,0.031-0.036    C13.309,14.366,13,13.309,13,12.646C13,11.68,13.656,9.875,15.239,9.875z"
   id="path13" />
		<path
   fill="#767875"
   d="M22,5h-2c-0.962,0-1.772,0.689-1.959,1.598C18.014,6.728,18,6.862,18,7v1.448    c0.153-0.05,0.313-0.083,0.482-0.083h2.685c1.05,0,1.998,0.158,2.833,0.448V7c0-0.138-0.014-0.272-0.041-0.402    C23.772,5.689,22.962,5,22,5z"
   id="path15" />
		<path
   fill="#767875"
   d="M30,5h-2c-0.962,0-1.772,0.689-1.959,1.598C26.014,6.728,26,6.862,26,7v2.976    c0.509,0.457,0.93,0.992,1.224,1.62H32V7C32,5.9,31.1,5,30,5z"
   id="path17" />
		<path
   fill="#767875"
   d="M38,5h-2c-1.1,0-2,0.9-2,2v4.596h6V7C40,5.9,39.1,5,38,5z"
   id="path19" />
		<path
   fill="#767875"
   d="M46,5h-2c-1.1,0-2,0.9-2,2v4.596h1.433c0.865,0,1.567,0.702,1.567,1.567V15v1.79    c0,0.865-0.702,1.567-1.567,1.567H42V23c0,1.1,0.9,2,2,2h2c1.1,0,2-0.9,2-2v-8V7C48,5.9,47.1,5,46,5z"
   id="path21" />
		<path
   opacity="0.2"
   fill="#FFFFFF"
   d="M14,5h-2c-0.962,0-1.772,0.689-1.959,1.598C10.014,6.728,10,6.862,10,7v8h3.982    c0.012-0.011,0.019-0.025,0.031-0.036C13.309,14.366,13,13.309,13,12.646c0-0.966,0.656-2.771,2.239-2.771H16V7    c0-0.138-0.014-0.272-0.041-0.402C15.772,5.689,14.962,5,14,5z"
   id="path23" />
		<path
   opacity="0.2"
   fill="#FFFFFF"
   d="M22,5h-2c-0.962,0-1.772,0.689-1.959,1.598C18.014,6.728,18,6.862,18,7v1.448    c0.153-0.05,0.313-0.083,0.482-0.083h2.685c1.05,0,1.998,0.158,2.833,0.448V7c0-0.138-0.014-0.272-0.041-0.402    C23.772,5.689,22.962,5,22,5z"
   id="path25" />
		<path
   opacity="0.2"
   fill="#FFFFFF"
   d="M30,5h-2c-0.962,0-1.772,0.689-1.959,1.598C26.014,6.728,26,6.862,26,7v2.976    c0.509,0.457,0.93,0.992,1.224,1.62H32V7C32,5.9,31.1,5,30,5z"
   id="path27" />
		<path
   opacity="0.2"
   fill="#FFFFFF"
   d="M38,5h-2c-1.1,0-2,0.9-2,2v4.596h6V7C40,5.9,39.1,5,38,5z"
   id="path29" />
		<path
   opacity="0.2"
   fill="#FFFFFF"
   d="M46,5h-2c-1.1,0-2,0.9-2,2v4.596h1.433c0.865,0,1.567,0.702,1.567,1.567V15h3V7    C48,5.9,47.1,5,46,5z"
   id="path31" />
	</g>
</g>
<g
   id="_x38_0_x25__charge"
   display="none">
	<g
   display="inline"
   id="g34">
		<path
   fill="#767875"
   d="M18.482,21.566c-0.169,0-0.33-0.033-0.482-0.083V23c0,1.1,0.9,2,2,2h2c1.1,0,2-0.9,2-2v-1.865    c-0.83,0.279-1.776,0.432-2.833,0.432H18.482z"
   id="path36" />
		<path
   fill="#767875"
   d="M26,19.993V23c0,1.1,0.9,2,2,2h2c1.1,0,2-0.9,2-2v-4.643h-4.771C26.936,18.996,26.514,19.536,26,19.993z"
   id="path38" />
		<path
   fill="#767875"
   d="M34,23c0,1.1,0.9,2,2,2h2c1.1,0,2-0.9,2-2v-4.643h-6V23z"
   id="path40" />
		<path
   fill="#767875"
   d="M22,5h-2c-0.962,0-1.772,0.689-1.959,1.598C18.014,6.728,18,6.862,18,7v1.448    c0.153-0.05,0.313-0.083,0.482-0.083h2.685c1.05,0,1.998,0.158,2.833,0.448V7c0-0.138-0.014-0.272-0.041-0.402    C23.772,5.689,22.962,5,22,5z"
   id="path42" />
		<path
   fill="#767875"
   d="M30,5h-2c-0.962,0-1.772,0.689-1.959,1.598C26.014,6.728,26,6.862,26,7v2.976    c0.509,0.457,0.93,0.992,1.224,1.62H32V7C32,5.9,31.1,5,30,5z"
   id="path44" />
		<path
   fill="#767875"
   d="M38,5h-2c-1.1,0-2,0.9-2,2v4.596h6V7C40,5.9,39.1,5,38,5z"
   id="path46" />
		<path
   fill="#767875"
   d="M46,5h-2c-1.1,0-2,0.9-2,2v4.596h1.433c0.865,0,1.567,0.702,1.567,1.567V15v1.79    c0,0.865-0.702,1.567-1.567,1.567H42V23c0,1.1,0.9,2,2,2h2c1.1,0,2-0.9,2-2v-8V7C48,5.9,47.1,5,46,5z"
   id="path48" />
		<path
   opacity="0.2"
   fill="#FFFFFF"
   d="M22,5h-2c-0.962,0-1.772,0.689-1.959,1.598C18.014,6.728,18,6.862,18,7v1.448    c0.153-0.05,0.313-0.083,0.482-0.083h2.685c1.05,0,1.998,0.158,2.833,0.448V7c0-0.138-0.014-0.272-0.041-0.402    C23.772,5.689,22.962,5,22,5z"
   id="path50" />
		<path
   opacity="0.2"
   fill="#FFFFFF"
   d="M30,5h-2c-0.962,0-1.772,0.689-1.959,1.598C26.014,6.728,26,6.862,26,7v2.976    c0.509,0.457,0.93,0.992,1.224,1.62H32V7C32,5.9,31.1,5,30,5z"
   id="path52" />
		<path
   opacity="0.2"
   fill="#FFFFFF"
   d="M38,5h-2c-1.1,0-2,0.9-2,2v4.596h6V7C40,5.9,39.1,5,38,5z"
   id="path54" />
		<path
   opacity="0.2"
   fill="#FFFFFF"
   d="M46,5h-2c-1.1,0-2,0.9-2,2v4.596h1.433c0.865,0,1.567,0.702,1.567,1.567V15h3V7    C48,5.9,47.1,5,46,5z"
   id="path56" />
	</g>
</g>
<g
   id="_x36_0_x25__charge">
	<g
   id="g59">
		<path
   d="M 26,19.993 V 23 c 0,1.1 0.9,2 2,2 h 2 c 1.1,0 2,-0.9 2,-2 V 18.357 H 27.229 C 26.936,18.996 26.514,19.536 26,19.993 z"
   id="path61"
   style="fill:#78bd43;fill-opacity:1"
   inkscape:connector-curvature="0" />
		<path
   d="m 34,23 c 0,1.1 0.9,2 2,2 h 2 c 1.1,0 2,-0.9 2,-2 V 18.357 H 34 V 23 z"
   id="path63"
   style="fill:#78bd43;fill-opacity:1"
   inkscape:connector-curvature="0" />
		<path
   d="M 30,5 H 28 C 27.038,5 26.228,5.689 26.041,6.598 26.014,6.728 26,6.862 26,7 v 2.976 c 0.509,0.457 0.93,0.992 1.224,1.62 H 32 V 7 C 32,5.9 31.1,5 30,5 z"
   id="path65"
   style="fill:#78bd43;fill-opacity:1"
   inkscape:connector-curvature="0" />
		<path
   d="m 38,5 h -2 c -1.1,0 -2,0.9 -2,2 v 4.596 h 6 V 7 C 40,5.9 39.1,5 38,5 z"
   id="path67"
   style="fill:#78bd43;fill-opacity:1"
   inkscape:connector-curvature="0" />
		<path
   d="m 46,5 h -2 c -1.1,0 -2,0.9 -2,2 v 4.596 h 1.433 c 0.865,0 1.567,0.702 1.567,1.567 V 15 16.79 c 0,0.865 -0.702,1.567 -1.567,1.567 H 42 V 23 c 0,1.1 0.9,2 2,2 h 2 c 1.1,0 2,-0.9 2,-2 V 15 7 C 48,5.9 47.1,5 46,5 z"
   id="path69"
   style="fill:#78bd43;fill-opacity:1"
   inkscape:connector-curvature="0" />
		<path
   d="M30,5h-2c-0.962,0-1.772,0.689-1.959,1.598C26.014,6.728,26,6.862,26,7v2.976    c0.509,0.457,0.93,0.992,1.224,1.62H32V7C32,5.9,31.1,5,30,5z"
   id="path71"
   fill="#FFFFFF"
   opacity="0.2" />
		<path
   d="M38,5h-2c-1.1,0-2,0.9-2,2v4.596h6V7C40,5.9,39.1,5,38,5z"
   id="path73"
   fill="#FFFFFF"
   opacity="0.2" />
		<path
   opacity="0.2"
   fill="#FFFFFF"
   d="M46,5h-2c-1.1,0-2,0.9-2,2v4.596h1.433c0.865,0,1.567,0.702,1.567,1.567V15h3V7    C48,5.9,47.1,5,46,5z"
   id="path75" />
	</g>
</g>
<g
   id="_x34_0_x25__charge"
   display="none">
	<g
   display="inline"
   id="g78">
		<path
   fill="#F26522"
   d="M34,23c0,1.1,0.9,2,2,2h2c1.1,0,2-0.9,2-2v-4.643h-6V23z"
   id="path80" />
		<path
   fill="#F26522"
   d="M38,5h-2c-1.1,0-2,0.9-2,2v4.596h6V7C40,5.9,39.1,5,38,5z"
   id="path82" />
		<path
   fill="#F26522"
   d="M46,5h-2c-1.1,0-2,0.9-2,2v4.596h1.433c0.865,0,1.567,0.702,1.567,1.567V15v1.79    c0,0.865-0.702,1.567-1.567,1.567H42V23c0,1.1,0.9,2,2,2h2c1.1,0,2-0.9,2-2v-8V7C48,5.9,47.1,5,46,5z"
   id="path84" />
		<path
   opacity="0.2"
   fill="#FFFFFF"
   d="M38,5h-2c-1.1,0-2,0.9-2,2v4.596h6V7C40,5.9,39.1,5,38,5z"
   id="path86" />
		<path
   opacity="0.2"
   fill="#FFFFFF"
   d="M46,5h-2c-1.1,0-2,0.9-2,2v4.596h1.433c0.865,0,1.567,0.702,1.567,1.567V15h3V7    C48,5.9,47.1,5,46,5z"
   id="path88" />
	</g>
</g>
<g
   id="_x32_0_x25__charge"
   display="none">
	<g
   display="inline"
   id="g91">
		<path
   fill="#ED1C24"
   d="M46,5h-2c-1.1,0-2,0.9-2,2v4.596h1.433c0.865,0,1.567,0.702,1.567,1.567V15v1.79    c0,0.865-0.702,1.567-1.567,1.567H42V23c0,1.1,0.9,2,2,2h2c1.1,0,2-0.9,2-2v-8V7C48,5.9,47.1,5,46,5z"
   id="path93" />
		<path
   opacity="0.2"
   fill="#FFFFFF"
   d="M46,5h-2c-1.1,0-2,0.9-2,2v4.596h1.433c0.865,0,1.567,0.702,1.567,1.567V15h3V7    C48,5.9,47.1,5,46,5z"
   id="path95" />
	</g>
</g>
<g
   id="_x30__x25__charge_copy"
   display="none">
</g>
<g
   id="Charge_24_">
	<path
   fill="#767875"
   d="M43.382,13.163H42h-2h-6h-2h-5.902c-0.023-0.114-0.067-0.21-0.098-0.317c-0.319-1.118-1.036-1.879-2-2.339   c-0.809-0.386-1.778-0.574-2.833-0.574h-2.685v1.51H18h-2h-0.761c-0.371,0-0.671,0.832-0.671,1.203c0,0.371,0.3,1.204,0.671,1.204   H16h2h0.482v2.23H18h-2h-0.761c-0.371,0-0.671,0.833-0.671,1.204s0.3,1.202,0.671,1.202H16h2h0.482v1.513h2.685   c1.055,0,2.024-0.185,2.833-0.566c0.964-0.454,1.681-1.21,2-2.325c0.031-0.107,0.075-0.203,0.098-0.317H32h2h6h2h1.382h0.051   L43.382,13.163z"
   id="path99" />
	<g
   opacity="0.15"
   id="g101">
		<g
   id="g103">
			<g
   id="g105">
				<linearGradient
   id="SVGID_1_"
   gradientUnits="userSpaceOnUse"
   x1="14.5679"
   y1="12.4629"
   x2="43.4326"
   y2="12.4629">
					<stop
   offset="0"
   style="stop-color:#FFFFFF"
   id="stop108" />
					<stop
   offset="1"
   style="stop-color:#FFFFFF"
   id="stop110" />
				</linearGradient>
				<path
   fill="url(#SVGID_1_)"
   d="M26.098,13.163c-0.465-2.297-2.497-3.23-4.931-3.23h-2.685v1.51h-3.244      c-0.371,0-0.671,0.832-0.671,1.203c0,0.371,0.3,1.204,0.671,1.204h3.244v1.143h24.95v-1.83H26.098z"
   id="path112" />
			</g>
		</g>
	</g>
	<path
   fill="#767875"
   d="M49.08,0.034H9.233c-2.712,0-4.919,2.207-4.919,4.92v4.202h-2.27C0.917,9.156,0,10.073,0,11.2v8.521   c0,1.127,0.917,2.043,2.044,2.043h2.27v3.258c0,2.713,2.207,4.92,4.919,4.92H49.08c2.713,0,4.92-2.207,4.92-4.92V4.954   C54,2.241,51.793,0.034,49.08,0.034z M2.357,19.406v-7.893h1.957v7.893H2.357z M51.559,25.021c0,1.366-1.112,2.479-2.479,2.479   H9.233c-1.366,0-2.478-1.112-2.478-2.479V4.954c0-1.367,1.112-2.479,2.478-2.479H49.08c1.366,0,2.479,1.112,2.479,2.479V25.021z"
   id="path114" />
</g>
<g
   id="_x31_00_x25__1_"
   display="none">
	<rect
   x="9.755"
   y="5.476"
   fill="none"
   stroke="#8CC63F"
   stroke-width="0.25"
   width="38.803"
   height="19.024"
   id="rect117" />
	<path
   display="inline"
   fill="#767875"
   d="M49.08,0.034H9.233c-2.712,0-4.919,2.207-4.919,4.92v4.202h-2.27   C0.917,9.156,0,10.073,0,11.2v8.521c0,1.127,0.917,2.043,2.044,2.043h2.27v3.258c0,2.713,2.207,4.92,4.919,4.92H49.08   c2.713,0,4.92-2.207,4.92-4.92V4.954C54,2.241,51.793,0.034,49.08,0.034z M2.357,19.406v-7.893h1.957v7.893H2.357z M51.559,25.021   c0,1.366-1.112,2.479-2.479,2.479H9.233c-1.366,0-2.478-1.112-2.478-2.479V4.954c0-1.367,1.112-2.479,2.478-2.479H49.08   c1.366,0,2.479,1.112,2.479,2.479V25.021z"
   id="path119" />
	<g
   id="Charge_16_">
		<path
   display="inline"
   fill="#767875"
   d="M18.424,22.386c-0.552,0-1-0.447-1-1v-0.928h-3.138c-1.322,0-1.856-1.789-1.856-2.535    s0.534-2.536,1.856-2.536h3.138v-0.845h-3.138c-1.322,0-1.856-1.789-1.856-2.535s0.534-2.535,1.856-2.535h3.138V8.545    c0-0.552,0.448-1,1-1h3.424c3.633,0,6.155,1.49,7.054,4.121h16.559c0.553,0,1,0.448,1,1v4.625c0,0.553-0.447,1-1,1H28.902    c-0.897,2.614-3.419,4.094-7.054,4.094H18.424z"
   id="path122" />
		<path
   display="inline"
   fill="#FFFFFF"
   d="M21.849,8.545c3.105,0,5.697,1.19,6.29,4.121h17.322v4.625H28.139    c-0.593,2.931-3.185,4.094-6.29,4.094h-3.424v-1.928h-4.138c-0.473,0-0.856-1.062-0.856-1.535c0-0.472,0.383-1.536,0.856-1.536    h4.138v-2.845h-4.138c-0.473,0-0.856-1.062-0.856-1.535c0-0.474,0.383-1.535,0.856-1.535h4.138V8.545H21.849 M21.849,6.545h-3.424    c-1.08,0-1.96,0.856-1.999,1.927h-2.139c-2.018,0-2.856,2.302-2.856,3.535c0,0.845,0.394,2.194,1.292,2.958    c-0.898,0.764-1.292,2.113-1.292,2.958c0,1.232,0.838,3.535,2.856,3.535h2.139c0.038,1.071,0.918,1.928,1.999,1.928h3.424    c3.795,0,6.526-1.471,7.733-4.094h15.879c1.104,0,2-0.896,2-2v-4.625c0-1.104-0.896-2-2-2H29.575    C28.354,8.057,25.581,6.545,21.849,6.545L21.849,6.545z"
   id="path124" />
	</g>
	<g
   display="inline"
   id="g126">
		<path
   fill="#767875"
   d="M16,23c0,1.1-0.9,2-2,2h-2c-1.1,0-2-0.9-2-2V7c0-1.1,0.9-2,2-2h2c1.1,0,2,0.9,2,2V23z"
   id="path128" />
		<path
   fill="#767875"
   d="M24,23c0,1.1-0.9,2-2,2h-2c-1.1,0-2-0.9-2-2V7c0-1.1,0.9-2,2-2h2c1.1,0,2,0.9,2,2V23z"
   id="path130" />
		<path
   fill="#767875"
   d="M32,23c0,1.1-0.9,2-2,2h-2c-1.1,0-2-0.9-2-2V7c0-1.1,0.9-2,2-2h2c1.1,0,2,0.9,2,2V23z"
   id="path132" />
		<path
   fill="#767875"
   d="M40,23c0,1.1-0.9,2-2,2h-2c-1.1,0-2-0.9-2-2V7c0-1.1,0.9-2,2-2h2c1.1,0,2,0.9,2,2V23z"
   id="path134" />
		<path
   fill="#767875"
   d="M48,23c0,1.1-0.9,2-2,2h-2c-1.1,0-2-0.9-2-2V7c0-1.1,0.9-2,2-2h2c1.1,0,2,0.9,2,2V23z"
   id="path136" />
		<path
   fill="#767875"
   d="M48,23c0,1.1-0.9,2-2,2h-2c-1.1,0-2-0.9-2-2V7c0-1.1,0.9-2,2-2h2c1.1,0,2,0.9,2,2V23z"
   id="path138" />
	</g>
	<g
   id="Cell_gloss_16_"
   display="inline"
   opacity="0.2">
		<path
   fill="#FFFFFF"
   d="M38,5h-2c-1.1,0-2,0.9-2,2v8h6V7C40,5.9,39.1,5,38,5z"
   id="path141" />
	</g>
	<g
   id="Cell_gloss_17_"
   display="inline"
   opacity="0.2">
		<path
   fill="#FFFFFF"
   d="M30,5h-2c-1.1,0-2,0.9-2,2v8h6V7C32,5.9,31.1,5,30,5z"
   id="path144" />
	</g>
	<g
   id="Cell_gloss_18_"
   display="inline"
   opacity="0.2">
		<path
   fill="#FFFFFF"
   d="M22,5h-2c-1.1,0-2,0.9-2,2v8h6V7C24,5.9,23.1,5,22,5z"
   id="path147" />
	</g>
	<g
   id="Cell_gloss_19_"
   display="inline"
   opacity="0.2">
		<path
   fill="#FFFFFF"
   d="M14,5h-2c-1.1,0-2,0.9-2,2v8h6V7C16,5.9,15.1,5,14,5z"
   id="path150" />
	</g>
</g>
<g
   id="_x38_0_x25__1_"
   display="none">
	<rect
   x="9.755"
   y="5.476"
   fill="none"
   stroke="#8CC63F"
   stroke-width="0.25"
   width="38.803"
   height="19.024"
   id="rect153" />
	<path
   display="inline"
   fill="#767875"
   d="M49.08,0.034H9.233c-2.712,0-4.919,2.207-4.919,4.92v4.202h-2.27   C0.917,9.156,0,10.073,0,11.2v8.521c0,1.127,0.917,2.043,2.044,2.043h2.27v3.258c0,2.713,2.207,4.92,4.919,4.92H49.08   c2.713,0,4.92-2.207,4.92-4.92V4.954C54,2.241,51.793,0.034,49.08,0.034z M2.357,19.406v-7.893h1.957v7.893H2.357z M51.559,25.021   c0,1.366-1.112,2.479-2.479,2.479H9.233c-1.366,0-2.478-1.112-2.478-2.479V4.954c0-1.367,1.112-2.479,2.478-2.479H49.08   c1.366,0,2.479,1.112,2.479,2.479V25.021z"
   id="path155" />
	<g
   id="Charge_20_">
		<path
   display="inline"
   fill="#767875"
   d="M18.424,22.386c-0.552,0-1-0.447-1-1v-0.928h-3.138c-1.322,0-1.856-1.789-1.856-2.535    s0.534-2.536,1.856-2.536h3.138v-0.845h-3.138c-1.322,0-1.856-1.789-1.856-2.535s0.534-2.535,1.856-2.535h3.138V8.545    c0-0.552,0.448-1,1-1h3.424c3.633,0,6.155,1.49,7.054,4.121h16.559c0.553,0,1,0.448,1,1v4.625c0,0.553-0.447,1-1,1H28.902    c-0.897,2.614-3.419,4.094-7.054,4.094H18.424z"
   id="path158" />
		<path
   display="inline"
   fill="#FFFFFF"
   d="M21.849,8.545c3.105,0,5.697,1.19,6.29,4.121h17.322v4.625H28.139    c-0.593,2.931-3.185,4.094-6.29,4.094h-3.424v-1.928h-4.138c-0.473,0-0.856-1.062-0.856-1.535c0-0.472,0.383-1.536,0.856-1.536    h4.138v-2.845h-4.138c-0.473,0-0.856-1.062-0.856-1.535c0-0.474,0.383-1.535,0.856-1.535h4.138V8.545H21.849 M21.849,6.545h-3.424    c-1.08,0-1.96,0.856-1.999,1.927h-2.139c-2.018,0-2.856,2.302-2.856,3.535c0,0.845,0.394,2.194,1.292,2.958    c-0.898,0.764-1.292,2.113-1.292,2.958c0,1.232,0.838,3.535,2.856,3.535h2.139c0.038,1.071,0.918,1.928,1.999,1.928h3.424    c3.795,0,6.526-1.471,7.733-4.094h15.879c1.104,0,2-0.896,2-2v-4.625c0-1.104-0.896-2-2-2H29.575    C28.354,8.057,25.581,6.545,21.849,6.545L21.849,6.545z"
   id="path160" />
	</g>
	<g
   display="inline"
   id="g162">
		<path
   fill="#767875"
   d="M24,23c0,1.1-0.9,2-2,2h-2c-1.1,0-2-0.9-2-2V7c0-1.1,0.9-2,2-2h2c1.1,0,2,0.9,2,2V23z"
   id="path164" />
		<path
   fill="#767875"
   d="M32,23c0,1.1-0.9,2-2,2h-2c-1.1,0-2-0.9-2-2V7c0-1.1,0.9-2,2-2h2c1.1,0,2,0.9,2,2V23z"
   id="path166" />
		<path
   fill="#767875"
   d="M40,23c0,1.1-0.9,2-2,2h-2c-1.1,0-2-0.9-2-2V7c0-1.1,0.9-2,2-2h2c1.1,0,2,0.9,2,2V23z"
   id="path168" />
		<path
   fill="#767875"
   d="M48,23c0,1.1-0.9,2-2,2h-2c-1.1,0-2-0.9-2-2V7c0-1.1,0.9-2,2-2h2c1.1,0,2,0.9,2,2V23z"
   id="path170" />
		<path
   fill="#767875"
   d="M48,23c0,1.1-0.9,2-2,2h-2c-1.1,0-2-0.9-2-2V7c0-1.1,0.9-2,2-2h2c1.1,0,2,0.9,2,2V23z"
   id="path172" />
	</g>
	<g
   id="Cell_gloss_11_"
   display="inline"
   opacity="0.2">
		<path
   fill="#FFFFFF"
   d="M46,5h-2c-1.1,0-2,0.9-2,2v8h6V7C48,5.9,47.1,5,46,5z"
   id="path175" />
	</g>
	<g
   id="Cell_gloss_12_"
   display="inline"
   opacity="0.2">
		<path
   fill="#FFFFFF"
   d="M38,5h-2c-1.1,0-2,0.9-2,2v8h6V7C40,5.9,39.1,5,38,5z"
   id="path178" />
	</g>
	<g
   id="Cell_gloss_13_"
   display="inline"
   opacity="0.2">
		<path
   fill="#FFFFFF"
   d="M30,5h-2c-1.1,0-2,0.9-2,2v8h6V7C32,5.9,31.1,5,30,5z"
   id="path181" />
	</g>
	<g
   id="Cell_gloss_14_"
   display="inline"
   opacity="0.2">
		<path
   fill="#FFFFFF"
   d="M22,5h-2c-1.1,0-2,0.9-2,2v8h6V7C24,5.9,23.1,5,22,5z"
   id="path184" />
	</g>
</g>
<g
   id="_x36_0_x25__1_"
   display="none">
	<rect
   x="9.755"
   y="5.476"
   fill="none"
   stroke="#8CC63F"
   stroke-width="0.25"
   width="38.803"
   height="19.024"
   id="rect187" />
	<path
   display="inline"
   fill="#767875"
   d="M49.08,0.034H9.233c-2.712,0-4.919,2.207-4.919,4.92v4.202h-2.27   C0.917,9.156,0,10.073,0,11.2v8.521c0,1.127,0.917,2.043,2.044,2.043h2.27v3.258c0,2.713,2.207,4.92,4.919,4.92H49.08   c2.713,0,4.92-2.207,4.92-4.92V4.954C54,2.241,51.793,0.034,49.08,0.034z M2.357,19.406v-7.893h1.957v7.893H2.357z M51.559,25.021   c0,1.366-1.112,2.479-2.479,2.479H9.233c-1.366,0-2.478-1.112-2.478-2.479V4.954c0-1.367,1.112-2.479,2.478-2.479H49.08   c1.366,0,2.479,1.112,2.479,2.479V25.021z"
   id="path189" />
	<g
   id="Charge_19_">
		<path
   display="inline"
   fill="#767875"
   d="M18.424,22.386c-0.552,0-1-0.447-1-1v-0.928h-3.138c-1.322,0-1.856-1.789-1.856-2.535    s0.534-2.536,1.856-2.536h3.138v-0.845h-3.138c-1.322,0-1.856-1.789-1.856-2.535s0.534-2.535,1.856-2.535h3.138V8.545    c0-0.552,0.448-1,1-1h3.424c3.633,0,6.155,1.49,7.054,4.121h16.559c0.553,0,1,0.448,1,1v4.625c0,0.553-0.447,1-1,1H28.902    c-0.897,2.614-3.419,4.094-7.054,4.094H18.424z"
   id="path192" />
		<path
   display="inline"
   fill="#FFFFFF"
   d="M21.849,8.545c3.105,0,5.697,1.19,6.29,4.121h17.322v4.625H28.139    c-0.593,2.931-3.185,4.094-6.29,4.094h-3.424v-1.928h-4.138c-0.473,0-0.856-1.062-0.856-1.535c0-0.472,0.383-1.536,0.856-1.536    h4.138v-2.845h-4.138c-0.473,0-0.856-1.062-0.856-1.535c0-0.474,0.383-1.535,0.856-1.535h4.138V8.545H21.849 M21.849,6.545h-3.424    c-1.08,0-1.96,0.856-1.999,1.927h-2.139c-2.018,0-2.856,2.302-2.856,3.535c0,0.845,0.394,2.194,1.292,2.958    c-0.898,0.764-1.292,2.113-1.292,2.958c0,1.232,0.838,3.535,2.856,3.535h2.139c0.038,1.071,0.918,1.928,1.999,1.928h3.424    c3.795,0,6.526-1.471,7.733-4.094h15.879c1.104,0,2-0.896,2-2v-4.625c0-1.104-0.896-2-2-2H29.575    C28.354,8.057,25.581,6.545,21.849,6.545L21.849,6.545z"
   id="path194" />
	</g>
	<g
   display="inline"
   id="g196">
		<path
   fill="#767875"
   d="M32,23c0,1.1-0.9,2-2,2h-2c-1.1,0-2-0.9-2-2V7c0-1.1,0.9-2,2-2h2c1.1,0,2,0.9,2,2V23z"
   id="path198" />
		<path
   fill="#767875"
   d="M40,23c0,1.1-0.9,2-2,2h-2c-1.1,0-2-0.9-2-2V7c0-1.1,0.9-2,2-2h2c1.1,0,2,0.9,2,2V23z"
   id="path200" />
		<path
   fill="#767875"
   d="M48,23c0,1.1-0.9,2-2,2h-2c-1.1,0-2-0.9-2-2V7c0-1.1,0.9-2,2-2h2c1.1,0,2,0.9,2,2V23z"
   id="path202" />
		<path
   fill="#767875"
   d="M48,23c0,1.1-0.9,2-2,2h-2c-1.1,0-2-0.9-2-2V7c0-1.1,0.9-2,2-2h2c1.1,0,2,0.9,2,2V23z"
   id="path204" />
	</g>
	<g
   id="Cell_gloss_8_"
   display="inline"
   opacity="0.2">
		<path
   fill="#FFFFFF"
   d="M46,5h-2c-1.1,0-2,0.9-2,2v8h6V7C48,5.9,47.1,5,46,5z"
   id="path207" />
	</g>
	<g
   id="Cell_gloss_9_"
   display="inline"
   opacity="0.2">
		<path
   fill="#FFFFFF"
   d="M38,5h-2c-1.1,0-2,0.9-2,2v8h6V7C40,5.9,39.1,5,38,5z"
   id="path210" />
	</g>
	<g
   id="Cell_gloss_10_"
   display="inline"
   opacity="0.2">
		<path
   fill="#FFFFFF"
   d="M30,5h-2c-1.1,0-2,0.9-2,2v8h6V7C32,5.9,31.1,5,30,5z"
   id="path213" />
	</g>
</g>
<g
   id="_x34_0_x25__1_"
   display="none">
	<rect
   x="9.755"
   y="5.476"
   fill="none"
   stroke="#8CC63F"
   stroke-width="0.25"
   width="38.803"
   height="19.024"
   id="rect216" />
	<path
   display="inline"
   fill="#767875"
   d="M49.08,0.034H9.233c-2.712,0-4.919,2.207-4.919,4.92v4.202h-2.27   C0.917,9.156,0,10.073,0,11.2v8.521c0,1.127,0.917,2.043,2.044,2.043h2.27v3.258c0,2.713,2.207,4.92,4.919,4.92H49.08   c2.713,0,4.92-2.207,4.92-4.92V4.954C54,2.241,51.793,0.034,49.08,0.034z M2.357,19.406v-7.893h1.957v7.893H2.357z M51.559,25.021   c0,1.366-1.112,2.479-2.479,2.479H9.233c-1.366,0-2.478-1.112-2.478-2.479V4.954c0-1.367,1.112-2.479,2.478-2.479H49.08   c1.366,0,2.479,1.112,2.479,2.479V25.021z"
   id="path218" />
	<g
   id="Charge_18_">
		<path
   display="inline"
   fill="#767875"
   d="M18.424,22.386c-0.552,0-1-0.447-1-1v-0.928h-3.138c-1.322,0-1.856-1.789-1.856-2.535    s0.534-2.536,1.856-2.536h3.138v-0.845h-3.138c-1.322,0-1.856-1.789-1.856-2.535s0.534-2.535,1.856-2.535h3.138V8.545    c0-0.552,0.448-1,1-1h3.424c3.633,0,6.155,1.49,7.054,4.121h16.559c0.553,0,1,0.448,1,1v4.625c0,0.553-0.447,1-1,1H28.902    c-0.897,2.614-3.419,4.094-7.054,4.094H18.424z"
   id="path221" />
		<path
   display="inline"
   fill="#FFFFFF"
   d="M21.849,8.545c3.105,0,5.697,1.19,6.29,4.121h17.322v4.625H28.139    c-0.593,2.931-3.185,4.094-6.29,4.094h-3.424v-1.928h-4.138c-0.473,0-0.856-1.062-0.856-1.535c0-0.472,0.383-1.536,0.856-1.536    h4.138v-2.845h-4.138c-0.473,0-0.856-1.062-0.856-1.535c0-0.474,0.383-1.535,0.856-1.535h4.138V8.545H21.849 M21.849,6.545h-3.424    c-1.08,0-1.96,0.856-1.999,1.927h-2.139c-2.018,0-2.856,2.302-2.856,3.535c0,0.845,0.394,2.194,1.292,2.958    c-0.898,0.764-1.292,2.113-1.292,2.958c0,1.232,0.838,3.535,2.856,3.535h2.139c0.038,1.071,0.918,1.928,1.999,1.928h3.424    c3.795,0,6.526-1.471,7.733-4.094h15.879c1.104,0,2-0.896,2-2v-4.625c0-1.104-0.896-2-2-2H29.575    C28.354,8.057,25.581,6.545,21.849,6.545L21.849,6.545z"
   id="path223" />
	</g>
	<g
   display="inline"
   id="g225">
		<path
   fill="#F26522"
   d="M40,23c0,1.1-0.9,2-2,2h-2c-1.1,0-2-0.9-2-2V7c0-1.1,0.9-2,2-2h2c1.1,0,2,0.9,2,2V23z"
   id="path227" />
		<path
   fill="#767875"
   d="M48,23c0,1.1-0.9,2-2,2h-2c-1.1,0-2-0.9-2-2V7c0-1.1,0.9-2,2-2h2c1.1,0,2,0.9,2,2V23z"
   id="path229" />
		<path
   fill="#F26522"
   d="M48,23c0,1.1-0.9,2-2,2h-2c-1.1,0-2-0.9-2-2V7c0-1.1,0.9-2,2-2h2c1.1,0,2,0.9,2,2V23z"
   id="path231" />
	</g>
	<g
   id="Cell_gloss_6_"
   display="inline"
   opacity="0.2">
		<path
   fill="#FFFFFF"
   d="M46,5h-2c-1.1,0-2,0.9-2,2v8h6V7C48,5.9,47.1,5,46,5z"
   id="path234" />
	</g>
	<g
   id="Cell_gloss_7_"
   display="inline"
   opacity="0.2">
		<path
   fill="#FFFFFF"
   d="M38,5h-2c-1.1,0-2,0.9-2,2v8h6V7C40,5.9,39.1,5,38,5z"
   id="path237" />
	</g>
</g>
<g
   id="_x32_0_x25__1_"
   display="none">
	<rect
   x="9.755"
   y="5.476"
   fill="none"
   stroke="#8CC63F"
   stroke-width="0.25"
   width="38.803"
   height="19.024"
   id="rect240" />
	<path
   display="inline"
   fill="#767875"
   d="M49.08,0.034H9.233c-2.712,0-4.919,2.207-4.919,4.92v4.202h-2.27   C0.917,9.156,0,10.073,0,11.2v8.521c0,1.127,0.917,2.043,2.044,2.043h2.27v3.258c0,2.713,2.207,4.92,4.919,4.92H49.08   c2.713,0,4.92-2.207,4.92-4.92V4.954C54,2.241,51.793,0.034,49.08,0.034z M2.357,19.406v-7.893h1.957v7.893H2.357z M51.559,25.021   c0,1.366-1.112,2.479-2.479,2.479H9.233c-1.366,0-2.478-1.112-2.478-2.479V4.954c0-1.367,1.112-2.479,2.478-2.479H49.08   c1.366,0,2.479,1.112,2.479,2.479V25.021z"
   id="path242" />
	<g
   id="Charge_17_">
		<path
   display="inline"
   fill="#767875"
   d="M18.424,22.386c-0.552,0-1-0.447-1-1v-0.928h-3.138c-1.322,0-1.856-1.789-1.856-2.535    s0.534-2.536,1.856-2.536h3.138v-0.845h-3.138c-1.322,0-1.856-1.789-1.856-2.535s0.534-2.535,1.856-2.535h3.138V8.545    c0-0.552,0.448-1,1-1h3.424c3.633,0,6.155,1.49,7.054,4.121h16.559c0.553,0,1,0.448,1,1v4.625c0,0.553-0.447,1-1,1H28.902    c-0.897,2.614-3.419,4.094-7.054,4.094H18.424z"
   id="path245" />
		<path
   display="inline"
   fill="#FFFFFF"
   d="M21.849,8.545c3.105,0,5.697,1.19,6.29,4.121h17.322v4.625H28.139    c-0.593,2.931-3.185,4.094-6.29,4.094h-3.424v-1.928h-4.138c-0.473,0-0.856-1.062-0.856-1.535c0-0.472,0.383-1.536,0.856-1.536    h4.138v-2.845h-4.138c-0.473,0-0.856-1.062-0.856-1.535c0-0.474,0.383-1.535,0.856-1.535h4.138V8.545H21.849 M21.849,6.545h-3.424    c-1.08,0-1.96,0.856-1.999,1.927h-2.139c-2.018,0-2.856,2.302-2.856,3.535c0,0.845,0.394,2.194,1.292,2.958    c-0.898,0.764-1.292,2.113-1.292,2.958c0,1.232,0.838,3.535,2.856,3.535h2.139c0.038,1.071,0.918,1.928,1.999,1.928h3.424    c3.795,0,6.526-1.471,7.733-4.094h15.879c1.104,0,2-0.896,2-2v-4.625c0-1.104-0.896-2-2-2H29.575    C28.354,8.057,25.581,6.545,21.849,6.545L21.849,6.545z"
   id="path247" />
	</g>
	<g
   display="inline"
   id="g249">
		<path
   fill="#767875"
   d="M48,23c0,1.1-0.9,2-2,2h-2c-1.1,0-2-0.9-2-2V7c0-1.1,0.9-2,2-2h2c1.1,0,2,0.9,2,2V23z"
   id="path251" />
		<path
   fill="#ED1C24"
   d="M48,23c0,1.1-0.9,2-2,2h-2c-1.1,0-2-0.9-2-2V7c0-1.1,0.9-2,2-2h2c1.1,0,2,0.9,2,2V23z"
   id="path253" />
	</g>
	<g
   id="Cell_gloss_5_"
   display="inline"
   opacity="0.2">
		<path
   fill="#FFFFFF"
   d="M46,5h-2c-1.1,0-2,0.9-2,2v8h6V7C48,5.9,47.1,5,46,5z"
   id="path256" />
	</g>
</g>
<g
   id="_x30__x25__1_"
   display="none">
	<rect
   x="9.755"
   y="5.476"
   fill="none"
   stroke="#8CC63F"
   stroke-width="0.25"
   width="38.803"
   height="19.024"
   id="rect259" />
	<path
   display="inline"
   fill="#767875"
   d="M49.08,0.034H9.233c-2.712,0-4.919,2.207-4.919,4.92v4.202h-2.27   C0.917,9.156,0,10.073,0,11.2v8.521c0,1.127,0.917,2.043,2.044,2.043h2.27v3.258c0,2.713,2.207,4.92,4.919,4.92H49.08   c2.713,0,4.92-2.207,4.92-4.92V4.954C54,2.241,51.793,0.034,49.08,0.034z M2.357,19.406v-7.893h1.957v7.893H2.357z M51.559,25.021   c0,1.366-1.112,2.479-2.479,2.479H9.233c-1.366,0-2.478-1.112-2.478-2.479V4.954c0-1.367,1.112-2.479,2.478-2.479H49.08   c1.366,0,2.479,1.112,2.479,2.479V25.021z"
   id="path261" />
	<g
   id="Charge_21_">
		<path
   display="inline"
   fill="#767875"
   d="M18.424,22.386c-0.552,0-1-0.447-1-1v-0.928h-3.138c-1.322,0-1.856-1.789-1.856-2.535    s0.534-2.536,1.856-2.536h3.138v-0.845h-3.138c-1.322,0-1.856-1.789-1.856-2.535s0.534-2.535,1.856-2.535h3.138V8.545    c0-0.552,0.448-1,1-1h3.424c3.633,0,6.155,1.49,7.054,4.121h16.559c0.553,0,1,0.448,1,1v4.625c0,0.553-0.447,1-1,1H28.902    c-0.897,2.614-3.419,4.094-7.054,4.094H18.424z"
   id="path264" />
		<path
   display="inline"
   fill="#FFFFFF"
   d="M21.849,8.545c3.105,0,5.697,1.19,6.29,4.121h17.322v4.625H28.139    c-0.593,2.931-3.185,4.094-6.29,4.094h-3.424v-1.928h-4.138c-0.473,0-0.856-1.062-0.856-1.535c0-0.472,0.383-1.536,0.856-1.536    h4.138v-2.845h-4.138c-0.473,0-0.856-1.062-0.856-1.535c0-0.474,0.383-1.535,0.856-1.535h4.138V8.545H21.849 M21.849,6.545h-3.424    c-1.08,0-1.96,0.856-1.999,1.927h-2.139c-2.018,0-2.856,2.302-2.856,3.535c0,0.845,0.394,2.194,1.292,2.958    c-0.898,0.764-1.292,2.113-1.292,2.958c0,1.232,0.838,3.535,2.856,3.535h2.139c0.038,1.071,0.918,1.928,1.999,1.928h3.424    c3.795,0,6.526-1.471,7.733-4.094h15.879c1.104,0,2-0.896,2-2v-4.625c0-1.104-0.896-2-2-2H29.575    C28.354,8.057,25.581,6.545,21.849,6.545L21.849,6.545z"
   id="path266" />
	</g>
</g>
<g
   id="Orig_icons"
   display="none">
	<g
   id="_x38_0_x25_">
		<rect
   x="9.755"
   y="5.476"
   fill="none"
   stroke="#8CC63F"
   stroke-width="0.25"
   width="38.803"
   height="19.024"
   id="rect270" />
		<path
   display="inline"
   fill="#767875"
   d="M49.08,0.034H9.233c-2.712,0-4.919,2.207-4.919,4.92v4.202h-2.27    C0.917,9.156,0,10.073,0,11.2v8.521c0,1.127,0.917,2.043,2.044,2.043h2.27v3.258c0,2.713,2.207,4.92,4.919,4.92H49.08    c2.713,0,4.92-2.207,4.92-4.92V4.954C54,2.241,51.793,0.034,49.08,0.034z M2.357,19.406v-7.893h1.957v7.893H2.357z M51.559,25.021    c0,1.366-1.112,2.479-2.479,2.479H9.233c-1.366,0-2.478-1.112-2.478-2.479V4.954c0-1.367,1.112-2.479,2.478-2.479H49.08    c1.366,0,2.479,1.112,2.479,2.479V25.021z"
   id="path272" />
		<g
   display="inline"
   id="g274">
			<path
   fill="#767875"
   d="M18.104,23.301V6.629c0-0.662,0.537-1.198,1.198-1.198h3.015c0.661,0,1.198,0.537,1.198,1.198v16.671     c0,0.662-0.537,1.199-1.198,1.199h-3.015C18.641,24.5,18.104,23.963,18.104,23.301z"
   id="path276" />
		</g>
		<g
   display="inline"
   id="g278">
			<path
   fill="#767875"
   d="M26.451,23.301V6.629c0-0.662,0.537-1.198,1.199-1.198h3.014c0.662,0,1.198,0.537,1.198,1.198v16.671     c0,0.662-0.536,1.199-1.198,1.199H27.65C26.988,24.5,26.451,23.963,26.451,23.301z"
   id="path280" />
		</g>
		<g
   display="inline"
   id="g282">
			<path
   fill="#767875"
   d="M34.799,23.301V6.629c0-0.662,0.537-1.198,1.199-1.198h3.014c0.662,0,1.199,0.537,1.199,1.198v16.671     c0,0.662-0.537,1.199-1.199,1.199h-3.014C35.336,24.5,34.799,23.963,34.799,23.301z"
   id="path284" />
		</g>
		<g
   display="inline"
   id="g286">
			<path
   fill="#767875"
   d="M43.146,23.301V6.629c0-0.662,0.537-1.198,1.199-1.198h3.014c0.662,0,1.199,0.537,1.199,1.198v16.671     c0,0.662-0.537,1.199-1.199,1.199h-3.014C43.684,24.5,43.146,23.963,43.146,23.301z"
   id="path288" />
		</g>
		<g
   id="Charge_1_">
			<path
   display="inline"
   fill="#767875"
   d="M18.424,22.386c-0.552,0-1-0.447-1-1v-0.928h-3.138c-1.322,0-1.856-1.789-1.856-2.535     s0.534-2.536,1.856-2.536h3.138v-0.845h-3.138c-1.322,0-1.856-1.789-1.856-2.535s0.534-2.535,1.856-2.535h3.138V8.545     c0-0.552,0.448-1,1-1h3.424c3.633,0,6.155,1.49,7.054,4.121h16.559c0.553,0,1,0.448,1,1v4.625c0,0.553-0.447,1-1,1H28.902     c-0.897,2.614-3.419,4.094-7.054,4.094H18.424z"
   id="path291" />
			<path
   display="inline"
   fill="#FFFFFF"
   d="M21.849,8.545c3.105,0,5.697,1.19,6.29,4.121h17.322v4.625H28.139     c-0.593,2.931-3.185,4.094-6.29,4.094h-3.424v-1.928h-4.138c-0.473,0-0.856-1.062-0.856-1.535c0-0.472,0.383-1.536,0.856-1.536     h4.138v-2.845h-4.138c-0.473,0-0.856-1.062-0.856-1.535c0-0.474,0.383-1.535,0.856-1.535h4.138V8.545H21.849 M21.849,6.545     h-3.424c-1.08,0-1.96,0.856-1.999,1.927h-2.139c-2.018,0-2.856,2.302-2.856,3.535c0,0.845,0.394,2.194,1.292,2.958     c-0.898,0.764-1.292,2.113-1.292,2.958c0,1.232,0.838,3.535,2.856,3.535h2.139c0.038,1.071,0.918,1.928,1.999,1.928h3.424     c3.795,0,6.526-1.471,7.733-4.094h15.879c1.104,0,2-0.896,2-2v-4.625c0-1.104-0.896-2-2-2H29.575     C28.354,8.057,25.581,6.545,21.849,6.545L21.849,6.545z"
   id="path293" />
		</g>
	</g>
	<g
   id="_x36_0_x25_">
		<rect
   x="9.755"
   y="5.476"
   fill="none"
   stroke="#8CC63F"
   stroke-width="0.25"
   width="38.803"
   height="19.024"
   id="rect296" />
		<path
   display="inline"
   fill="#767875"
   d="M49.08,0.034H9.233c-2.712,0-4.919,2.207-4.919,4.92v4.202h-2.27    C0.917,9.156,0,10.073,0,11.2v8.521c0,1.127,0.917,2.043,2.044,2.043h2.27v3.258c0,2.713,2.207,4.92,4.919,4.92H49.08    c2.713,0,4.92-2.207,4.92-4.92V4.954C54,2.241,51.793,0.034,49.08,0.034z M2.357,19.406v-7.893h1.957v7.893H2.357z M51.559,25.021    c0,1.366-1.112,2.479-2.479,2.479H9.233c-1.366,0-2.478-1.112-2.478-2.479V4.954c0-1.367,1.112-2.479,2.478-2.479H49.08    c1.366,0,2.479,1.112,2.479,2.479V25.021z"
   id="path298" />
		<g
   display="inline"
   id="g300">
			<path
   fill="#767875"
   d="M26.451,23.301V6.629c0-0.662,0.537-1.198,1.199-1.198h3.014c0.662,0,1.198,0.537,1.198,1.198v16.671     c0,0.662-0.536,1.199-1.198,1.199H27.65C26.988,24.5,26.451,23.963,26.451,23.301z"
   id="path302" />
		</g>
		<g
   display="inline"
   id="g304">
			<path
   fill="#767875"
   d="M34.799,23.301V6.629c0-0.662,0.537-1.198,1.199-1.198h3.014c0.662,0,1.199,0.537,1.199,1.198v16.671     c0,0.662-0.537,1.199-1.199,1.199h-3.014C35.336,24.5,34.799,23.963,34.799,23.301z"
   id="path306" />
		</g>
		<g
   display="inline"
   id="g308">
			<path
   fill="#767875"
   d="M43.146,23.301V6.629c0-0.662,0.537-1.198,1.199-1.198h3.014c0.662,0,1.199,0.537,1.199,1.198v16.671     c0,0.662-0.537,1.199-1.199,1.199h-3.014C43.684,24.5,43.146,23.963,43.146,23.301z"
   id="path310" />
		</g>
		<g
   id="Charge_2_">
			<path
   display="inline"
   fill="#767875"
   d="M18.424,22.386c-0.552,0-1-0.447-1-1v-0.928h-3.138c-1.322,0-1.856-1.789-1.856-2.535     s0.534-2.536,1.856-2.536h3.138v-0.845h-3.138c-1.322,0-1.856-1.789-1.856-2.535s0.534-2.535,1.856-2.535h3.138V8.545     c0-0.552,0.448-1,1-1h3.424c3.633,0,6.155,1.49,7.054,4.121h16.559c0.553,0,1,0.448,1,1v4.625c0,0.553-0.447,1-1,1H28.902     c-0.897,2.614-3.419,4.094-7.054,4.094H18.424z"
   id="path313" />
			<path
   display="inline"
   fill="#FFFFFF"
   d="M21.849,8.545c3.105,0,5.697,1.19,6.29,4.121h17.322v4.625H28.139     c-0.593,2.931-3.185,4.094-6.29,4.094h-3.424v-1.928h-4.138c-0.473,0-0.856-1.062-0.856-1.535c0-0.472,0.383-1.536,0.856-1.536     h4.138v-2.845h-4.138c-0.473,0-0.856-1.062-0.856-1.535c0-0.474,0.383-1.535,0.856-1.535h4.138V8.545H21.849 M21.849,6.545     h-3.424c-1.08,0-1.96,0.856-1.999,1.927h-2.139c-2.018,0-2.856,2.302-2.856,3.535c0,0.845,0.394,2.194,1.292,2.958     c-0.898,0.764-1.292,2.113-1.292,2.958c0,1.232,0.838,3.535,2.856,3.535h2.139c0.038,1.071,0.918,1.928,1.999,1.928h3.424     c3.795,0,6.526-1.471,7.733-4.094h15.879c1.104,0,2-0.896,2-2v-4.625c0-1.104-0.896-2-2-2H29.575     C28.354,8.057,25.581,6.545,21.849,6.545L21.849,6.545z"
   id="path315" />
		</g>
	</g>
	<g
   id="_x34_0_x25_">
		<rect
   x="9.755"
   y="5.476"
   fill="none"
   stroke="#8CC63F"
   stroke-width="0.25"
   width="38.803"
   height="19.024"
   id="rect318" />
		<path
   display="inline"
   fill="#767875"
   d="M49.08,0.034H9.233c-2.712,0-4.919,2.207-4.919,4.92v4.202h-2.27    C0.917,9.156,0,10.073,0,11.2v8.521c0,1.127,0.917,2.043,2.044,2.043h2.27v3.258c0,2.713,2.207,4.92,4.919,4.92H49.08    c2.713,0,4.92-2.207,4.92-4.92V4.954C54,2.241,51.793,0.034,49.08,0.034z M2.357,19.406v-7.893h1.957v7.893H2.357z M51.559,25.021    c0,1.366-1.112,2.479-2.479,2.479H9.233c-1.366,0-2.478-1.112-2.478-2.479V4.954c0-1.367,1.112-2.479,2.478-2.479H49.08    c1.366,0,2.479,1.112,2.479,2.479V25.021z"
   id="path320" />
		<g
   display="inline"
   id="g322">
			<path
   fill="#F26522"
   d="M34.799,23.301V6.629c0-0.662,0.537-1.198,1.199-1.198h3.014c0.662,0,1.199,0.537,1.199,1.198v16.671     c0,0.662-0.537,1.199-1.199,1.199h-3.014C35.336,24.5,34.799,23.963,34.799,23.301z"
   id="path324" />
		</g>
		<g
   display="inline"
   id="g326">
			<path
   fill="#F26522"
   d="M43.146,23.301V6.629c0-0.662,0.537-1.198,1.199-1.198h3.014c0.662,0,1.199,0.537,1.199,1.198v16.671     c0,0.662-0.537,1.199-1.199,1.199h-3.014C43.684,24.5,43.146,23.963,43.146,23.301z"
   id="path328" />
		</g>
		<g
   id="Charge_3_">
			<path
   display="inline"
   fill="#767875"
   d="M18.424,22.386c-0.552,0-1-0.447-1-1v-0.928h-3.138c-1.322,0-1.856-1.789-1.856-2.535     s0.534-2.536,1.856-2.536h3.138v-0.845h-3.138c-1.322,0-1.856-1.789-1.856-2.535s0.534-2.535,1.856-2.535h3.138V8.545     c0-0.552,0.448-1,1-1h3.424c3.633,0,6.155,1.49,7.054,4.121h16.559c0.553,0,1,0.448,1,1v4.625c0,0.553-0.447,1-1,1H28.902     c-0.897,2.614-3.419,4.094-7.054,4.094H18.424z"
   id="path331" />
			<path
   display="inline"
   fill="#FFFFFF"
   d="M21.849,8.545c3.105,0,5.697,1.19,6.29,4.121h17.322v4.625H28.139     c-0.593,2.931-3.185,4.094-6.29,4.094h-3.424v-1.928h-4.138c-0.473,0-0.856-1.062-0.856-1.535c0-0.472,0.383-1.536,0.856-1.536     h4.138v-2.845h-4.138c-0.473,0-0.856-1.062-0.856-1.535c0-0.474,0.383-1.535,0.856-1.535h4.138V8.545H21.849 M21.849,6.545     h-3.424c-1.08,0-1.96,0.856-1.999,1.927h-2.139c-2.018,0-2.856,2.302-2.856,3.535c0,0.845,0.394,2.194,1.292,2.958     c-0.898,0.764-1.292,2.113-1.292,2.958c0,1.232,0.838,3.535,2.856,3.535h2.139c0.038,1.071,0.918,1.928,1.999,1.928h3.424     c3.795,0,6.526-1.471,7.733-4.094h15.879c1.104,0,2-0.896,2-2v-4.625c0-1.104-0.896-2-2-2H29.575     C28.354,8.057,25.581,6.545,21.849,6.545L21.849,6.545z"
   id="path333" />
		</g>
	</g>
	<g
   id="_x32_0_x25_">
		<rect
   x="9.755"
   y="5.476"
   fill="none"
   stroke="#8CC63F"
   stroke-width="0.25"
   width="38.803"
   height="19.024"
   id="rect336" />
		<path
   display="inline"
   fill="#767875"
   d="M49.08,0.034H9.233c-2.712,0-4.919,2.207-4.919,4.92v4.202h-2.27    C0.917,9.156,0,10.073,0,11.2v8.521c0,1.127,0.917,2.043,2.044,2.043h2.27v3.258c0,2.713,2.207,4.92,4.919,4.92H49.08    c2.713,0,4.92-2.207,4.92-4.92V4.954C54,2.241,51.793,0.034,49.08,0.034z M2.357,19.406v-7.893h1.957v7.893H2.357z M51.559,25.021    c0,1.366-1.112,2.479-2.479,2.479H9.233c-1.366,0-2.478-1.112-2.478-2.479V4.954c0-1.367,1.112-2.479,2.478-2.479H49.08    c1.366,0,2.479,1.112,2.479,2.479V25.021z"
   id="path338" />
		<g
   display="inline"
   id="g340">
			<path
   fill="#ED1C24"
   d="M43.146,23.301V6.629c0-0.662,0.537-1.198,1.199-1.198h3.014c0.662,0,1.199,0.537,1.199,1.198v16.671     c0,0.662-0.537,1.199-1.199,1.199h-3.014C43.684,24.5,43.146,23.963,43.146,23.301z"
   id="path342" />
		</g>
		<g
   id="Charge_4_">
			<path
   display="inline"
   fill="#767875"
   d="M18.424,22.386c-0.552,0-1-0.447-1-1v-0.928h-3.138c-1.322,0-1.856-1.789-1.856-2.535     s0.534-2.536,1.856-2.536h3.138v-0.845h-3.138c-1.322,0-1.856-1.789-1.856-2.535s0.534-2.535,1.856-2.535h3.138V8.545     c0-0.552,0.448-1,1-1h3.424c3.633,0,6.155,1.49,7.054,4.121h16.559c0.553,0,1,0.448,1,1v4.625c0,0.553-0.447,1-1,1H28.902     c-0.897,2.614-3.419,4.094-7.054,4.094H18.424z"
   id="path345" />
			<path
   display="inline"
   fill="#FFFFFF"
   d="M21.849,8.545c3.105,0,5.697,1.19,6.29,4.121h17.322v4.625H28.139     c-0.593,2.931-3.185,4.094-6.29,4.094h-3.424v-1.928h-4.138c-0.473,0-0.856-1.062-0.856-1.535c0-0.472,0.383-1.536,0.856-1.536     h4.138v-2.845h-4.138c-0.473,0-0.856-1.062-0.856-1.535c0-0.474,0.383-1.535,0.856-1.535h4.138V8.545H21.849 M21.849,6.545     h-3.424c-1.08,0-1.96,0.856-1.999,1.927h-2.139c-2.018,0-2.856,2.302-2.856,3.535c0,0.845,0.394,2.194,1.292,2.958     c-0.898,0.764-1.292,2.113-1.292,2.958c0,1.232,0.838,3.535,2.856,3.535h2.139c0.038,1.071,0.918,1.928,1.999,1.928h3.424     c3.795,0,6.526-1.471,7.733-4.094h15.879c1.104,0,2-0.896,2-2v-4.625c0-1.104-0.896-2-2-2H29.575     C28.354,8.057,25.581,6.545,21.849,6.545L21.849,6.545z"
   id="path347" />
		</g>
	</g>
	<g
   id="_x30__x25_">
		<rect
   x="9.755"
   y="5.476"
   fill="none"
   stroke="#8CC63F"
   stroke-width="0.25"
   width="38.803"
   height="19.024"
   id="rect350" />
		<path
   display="inline"
   fill="#767875"
   d="M49.08,0.034H9.233c-2.712,0-4.919,2.207-4.919,4.92v4.202h-2.27    C0.917,9.156,0,10.073,0,11.2v8.521c0,1.127,0.917,2.043,2.044,2.043h2.27v3.258c0,2.713,2.207,4.92,4.919,4.92H49.08    c2.713,0,4.92-2.207,4.92-4.92V4.954C54,2.241,51.793,0.034,49.08,0.034z M2.357,19.406v-7.893h1.957v7.893H2.357z M51.559,25.021    c0,1.366-1.112,2.479-2.479,2.479H9.233c-1.366,0-2.478-1.112-2.478-2.479V4.954c0-1.367,1.112-2.479,2.478-2.479H49.08    c1.366,0,2.479,1.112,2.479,2.479V25.021z"
   id="path352" />
		<g
   id="Charge_5_">
			<path
   display="inline"
   fill="#767875"
   d="M18.424,22.386c-0.552,0-1-0.447-1-1v-0.928h-3.138c-1.322,0-1.856-1.789-1.856-2.535     s0.534-2.536,1.856-2.536h3.138v-0.845h-3.138c-1.322,0-1.856-1.789-1.856-2.535s0.534-2.535,1.856-2.535h3.138V8.545     c0-0.552,0.448-1,1-1h3.424c3.633,0,6.155,1.49,7.054,4.121h16.559c0.553,0,1,0.448,1,1v4.625c0,0.553-0.447,1-1,1H28.902     c-0.897,2.614-3.419,4.094-7.054,4.094H18.424z"
   id="path355" />
			<path
   display="inline"
   fill="#FFFFFF"
   d="M21.849,8.545c3.105,0,5.697,1.19,6.29,4.121h17.322v4.625H28.139     c-0.593,2.931-3.185,4.094-6.29,4.094h-3.424v-1.928h-4.138c-0.473,0-0.856-1.062-0.856-1.535c0-0.472,0.383-1.536,0.856-1.536     h4.138v-2.845h-4.138c-0.473,0-0.856-1.062-0.856-1.535c0-0.474,0.383-1.535,0.856-1.535h4.138V8.545H21.849 M21.849,6.545     h-3.424c-1.08,0-1.96,0.856-1.999,1.927h-2.139c-2.018,0-2.856,2.302-2.856,3.535c0,0.845,0.394,2.194,1.292,2.958     c-0.898,0.764-1.292,2.113-1.292,2.958c0,1.232,0.838,3.535,2.856,3.535h2.139c0.038,1.071,0.918,1.928,1.999,1.928h3.424     c3.795,0,6.526-1.471,7.733-4.094h15.879c1.104,0,2-0.896,2-2v-4.625c0-1.104-0.896-2-2-2H29.575     C28.354,8.057,25.581,6.545,21.849,6.545L21.849,6.545z"
   id="path357" />
		</g>
		<g
   id="Charge_6_">
			<g
   display="inline"
   id="g360">
				<path
   fill="#767875"
   d="M11.431,17.923c0-0.846,0.394-2.194,1.292-2.958c-0.898-0.764-1.292-2.112-1.292-2.958      c0-1.232,0.838-3.535,2.856-3.535h0.88V6.629c0-0.662-0.537-1.198-1.198-1.198h-3.014c-0.662,0-1.199,0.537-1.199,1.198v16.671      c0,0.662,0.537,1.199,1.199,1.199h3.014c0.662,0,1.198-0.537,1.198-1.199v-1.843h-0.88      C12.269,21.458,11.431,19.155,11.431,17.923z"
   id="path362" />
				<path
   fill="#767875"
   d="M18.424,23.386c-0.106,0-0.208-0.015-0.31-0.03c0.03,0.635,0.546,1.145,1.188,1.145h3.015      c0.661,0,1.198-0.537,1.198-1.199v-0.03c-0.532,0.068-1.082,0.115-1.666,0.115H18.424z"
   id="path364" />
				<path
   fill="#767875"
   d="M21.849,6.545c0.583,0,1.132,0.049,1.666,0.122V6.629c0-0.662-0.537-1.198-1.198-1.198h-3.015      c-0.642,0-1.158,0.509-1.188,1.145c0.102-0.016,0.204-0.031,0.31-0.031H21.849z"
   id="path366" />
				<path
   fill="#767875"
   d="M29.575,10.667h2.287V6.629c0-0.662-0.536-1.198-1.198-1.198H27.65c-0.662,0-1.199,0.537-1.199,1.198      v0.907C27.859,8.242,28.936,9.298,29.575,10.667z"
   id="path368" />
				<path
   fill="#767875"
   d="M26.451,22.426v0.875c0,0.662,0.537,1.199,1.199,1.199h3.014c0.662,0,1.198-0.537,1.198-1.199v-4.009      h-2.28C28.944,20.678,27.871,21.73,26.451,22.426z"
   id="path370" />
				<path
   fill="#767875"
   d="M34.799,23.301c0,0.662,0.537,1.199,1.199,1.199h3.014c0.662,0,1.199-0.537,1.199-1.199v-4.009h-5.412      V23.301z"
   id="path372" />
				<path
   fill="#767875"
   d="M40.211,6.629c0-0.662-0.537-1.198-1.199-1.198h-3.014c-0.662,0-1.199,0.537-1.199,1.198v4.037h5.412      V6.629z"
   id="path374" />
				<path
   fill="#767875"
   d="M47.359,5.431h-3.014c-0.662,0-1.199,0.537-1.199,1.198v4.037h2.314c1.104,0,2,0.896,2,2v4.625      c0,1.104-0.896,2-2,2h-2.314v4.009c0,0.662,0.537,1.199,1.199,1.199h3.014c0.662,0,1.199-0.537,1.199-1.199V6.629      C48.559,5.968,48.021,5.431,47.359,5.431z"
   id="path376" />
				<rect
   x="31.862"
   y="12.667"
   fill="#767875"
   width="2.937"
   height="4.625"
   id="rect378" />
				<rect
   x="40.211"
   y="12.667"
   fill="#767875"
   width="2.936"
   height="4.625"
   id="rect380" />
				<rect
   x="15.167"
   y="10.472"
   fill="#767875"
   width="2.937"
   height="3.07"
   id="rect382" />
				<path
   fill="#767875"
   d="M23.515,8.688v12.557c1.136-0.181,2.143-0.562,2.937-1.184V9.887C25.657,9.261,24.65,8.873,23.515,8.688      z"
   id="path384" />
				<rect
   x="15.167"
   y="16.387"
   fill="#767875"
   width="2.937"
   height="3.071"
   id="rect386" />
				<path
   fill="#767875"
   d="M14.287,10.472c-0.473,0-0.856,1.061-0.856,1.535c0,0.473,0.383,1.535,0.856,1.535h0.88v-3.07H14.287z"
   id="path388" />
				<path
   fill="#767875"
   d="M14.287,16.387c-0.473,0-0.856,1.064-0.856,1.536c0,0.473,0.383,1.535,0.856,1.535h0.88v-3.071H14.287z"
   id="path390" />
				<path
   fill="#767875"
   d="M21.849,8.545h-3.424v1.927h-0.321v3.07h0.321v2.845h-0.321v3.071h0.321v1.928h3.424      c0.58,0,1.132-0.056,1.666-0.141V8.688C22.98,8.602,22.428,8.545,21.849,8.545z"
   id="path392" />
				<path
   fill="#767875"
   d="M28.139,12.667c-0.247-1.22-0.854-2.124-1.688-2.78v10.175c0.833-0.651,1.44-1.549,1.688-2.77h3.724      v-4.625H28.139z"
   id="path394" />
				<rect
   x="34.799"
   y="12.667"
   fill="#767875"
   width="5.412"
   height="4.625"
   id="rect396" />
				<rect
   x="43.146"
   y="12.667"
   fill="#767875"
   width="2.314"
   height="4.625"
   id="rect398" />
			</g>
			<g
   display="inline"
   opacity="0.15"
   id="g400">
				<g
   id="g402">
					<g
   id="g404">
						<linearGradient
   id="SVGID_2_"
   gradientUnits="userSpaceOnUse"
   x1="13.4307"
   y1="11.7725"
   x2="45.4609"
   y2="11.7725">
							<stop
   offset="0"
   style="stop-color:#FFFFFF"
   id="stop407" />
							<stop
   offset="1"
   style="stop-color:#FFFFFF"
   id="stop409" />
						</linearGradient>
						<path
   fill="url(#SVGID_2_)"
   d="M28.139,12.667c-0.593-2.931-3.185-4.121-6.29-4.121h-3.424v1.927h-4.138        c-0.473,0-0.856,1.061-0.856,1.535c0,0.473,0.383,1.535,0.856,1.535h4.138V15h27.037v-2.333H28.139z"
   id="path411" />
					</g>
				</g>
			</g>
		</g>
	</g>
	<g
   id="Charge_7_">
		<path
   display="inline"
   fill="#767875"
   d="M49.08,0.034H9.233c-2.712,0-4.919,2.207-4.919,4.92v4.202h-2.27    C0.917,9.156,0,10.073,0,11.2v8.521c0,1.127,0.917,2.043,2.044,2.043h2.27v3.258c0,2.713,2.207,4.92,4.919,4.92H49.08    c2.713,0,4.92-2.207,4.92-4.92V4.954C54,2.241,51.793,0.034,49.08,0.034z M2.357,19.406v-7.893h1.957v7.893H2.357z M51.559,25.021    c0,1.366-1.112,2.479-2.479,2.479H9.233c-1.366,0-2.478-1.112-2.478-2.479V4.954c0-1.367,1.112-2.479,2.478-2.479H49.08    c1.366,0,2.479,1.112,2.479,2.479V25.021z"
   id="path414" />
	</g>
	<g
   id="_x30__x25__Charge">
		<g
   id="Charge_15_"
   display="inline">
			<g
   id="Charge_level_5_">
				<rect
   x="31.862"
   y="12.667"
   fill="#767875"
   width="2.937"
   height="4.625"
   id="rect419" />
				<rect
   x="40.211"
   y="12.667"
   fill="#767875"
   width="2.936"
   height="4.625"
   id="rect421" />
				<rect
   x="15.167"
   y="10.472"
   fill="#767875"
   width="2.937"
   height="3.07"
   id="rect423" />
				<path
   fill="#767875"
   d="M23.515,8.688v12.557c1.136-0.181,2.143-0.562,2.937-1.184V9.887C25.657,9.261,24.65,8.873,23.515,8.688      z"
   id="path425" />
				<rect
   x="15.167"
   y="16.387"
   fill="#767875"
   width="2.937"
   height="3.071"
   id="rect427" />
				<path
   fill="#767875"
   d="M14.287,10.472c-0.473,0-0.856,1.061-0.856,1.535c0,0.473,0.383,1.535,0.856,1.535h0.88v-3.07H14.287z"
   id="path429" />
				<path
   fill="#767875"
   d="M14.287,16.387c-0.473,0-0.856,1.064-0.856,1.536c0,0.473,0.383,1.535,0.856,1.535h0.88v-3.071H14.287z"
   id="path431" />
				<path
   fill="#767875"
   d="M21.849,8.545h-3.424v1.927h-0.321v3.07h0.321v2.845h-0.321v3.071h0.321v1.928h3.424      c0.58,0,1.132-0.056,1.666-0.141V8.688C22.98,8.602,22.428,8.545,21.849,8.545z"
   id="path433" />
				<path
   fill="#767875"
   d="M28.139,12.667c-0.247-1.22-0.854-2.124-1.688-2.78v10.175c0.833-0.651,1.44-1.549,1.688-2.77h3.724      v-4.625H28.139z"
   id="path435" />
				<rect
   x="34.799"
   y="12.667"
   fill="#767875"
   width="5.412"
   height="4.625"
   id="rect437" />
				<rect
   x="43.146"
   y="12.667"
   fill="#767875"
   width="2.314"
   height="4.625"
   id="rect439" />
			</g>
			<g
   id="Gloss_11_"
   opacity="0.15">
				<g
   id="g442">
					<g
   id="g444">
						<linearGradient
   id="SVGID_3_"
   gradientUnits="userSpaceOnUse"
   x1="13.4307"
   y1="11.7725"
   x2="45.4609"
   y2="11.7725">
							<stop
   offset="0"
   style="stop-color:#FFFFFF"
   id="stop447" />
							<stop
   offset="1"
   style="stop-color:#FFFFFF"
   id="stop449" />
						</linearGradient>
						<path
   fill="url(#SVGID_3_)"
   d="M28.139,12.667c-0.593-2.931-3.185-4.121-6.29-4.121h-3.424v1.927h-4.138        c-0.473,0-0.856,1.061-0.856,1.535c0,0.473,0.383,1.535,0.856,1.535h4.138V15h27.037v-2.333H28.139z"
   id="path451" />
					</g>
				</g>
			</g>
		</g>
		<path
   display="inline"
   fill="#767875"
   d="M49.08,0.034H9.233c-2.712,0-4.919,2.207-4.919,4.92v4.202h-2.27    C0.917,9.156,0,10.073,0,11.2v8.521c0,1.127,0.917,2.043,2.044,2.043h2.27v3.258c0,2.713,2.207,4.92,4.919,4.92H49.08    c2.713,0,4.92-2.207,4.92-4.92V4.954C54,2.241,51.793,0.034,49.08,0.034z M2.357,19.406v-7.893h1.957v7.893H2.357z M51.559,25.021    c0,1.366-1.112,2.479-2.479,2.479H9.233c-1.366,0-2.478-1.112-2.478-2.479V4.954c0-1.367,1.112-2.479,2.478-2.479H49.08    c1.366,0,2.479,1.112,2.479,2.479V25.021z"
   id="path453" />
	</g>
	<g
   id="_x32_0_x25__Charge">
		<g
   id="Charge_14_"
   display="inline">
			<g
   id="Charge_level_4_">
				<path
   fill="#ED1C24"
   d="M47.359,5.431h-3.014c-0.662,0-1.199,0.537-1.199,1.198v4.037h2.314c1.104,0,2,0.896,2,2v4.625      c0,1.104-0.896,2-2,2h-2.314v4.009c0,0.662,0.537,1.199,1.199,1.199h3.014c0.662,0,1.199-0.537,1.199-1.199V6.629      C48.559,5.968,48.021,5.431,47.359,5.431z"
   id="path458" />
				<rect
   x="31.862"
   y="12.667"
   fill="#767875"
   width="2.937"
   height="4.625"
   id="rect460" />
				<rect
   x="40.211"
   y="12.667"
   fill="#767875"
   width="2.936"
   height="4.625"
   id="rect462" />
				<rect
   x="15.167"
   y="10.472"
   fill="#767875"
   width="2.937"
   height="3.07"
   id="rect464" />
				<path
   fill="#767875"
   d="M23.515,8.688v12.557c1.136-0.181,2.143-0.562,2.937-1.184V9.887C25.657,9.261,24.65,8.873,23.515,8.688      z"
   id="path466" />
				<rect
   x="15.167"
   y="16.387"
   fill="#767875"
   width="2.937"
   height="3.071"
   id="rect468" />
				<path
   fill="#767875"
   d="M14.287,10.472c-0.473,0-0.856,1.061-0.856,1.535c0,0.473,0.383,1.535,0.856,1.535h0.88v-3.07H14.287z"
   id="path470" />
				<path
   fill="#767875"
   d="M14.287,16.387c-0.473,0-0.856,1.064-0.856,1.536c0,0.473,0.383,1.535,0.856,1.535h0.88v-3.071H14.287z"
   id="path472" />
				<path
   fill="#767875"
   d="M21.849,8.545h-3.424v1.927h-0.321v3.07h0.321v2.845h-0.321v3.071h0.321v1.928h3.424      c0.58,0,1.132-0.056,1.666-0.141V8.688C22.98,8.602,22.428,8.545,21.849,8.545z"
   id="path474" />
				<path
   fill="#767875"
   d="M28.139,12.667c-0.247-1.22-0.854-2.124-1.688-2.78v10.175c0.833-0.651,1.44-1.549,1.688-2.77h3.724      v-4.625H28.139z"
   id="path476" />
				<rect
   x="34.799"
   y="12.667"
   fill="#767875"
   width="5.412"
   height="4.625"
   id="rect478" />
				<rect
   x="43.146"
   y="12.667"
   fill="#767875"
   width="2.314"
   height="4.625"
   id="rect480" />
			</g>
			<g
   id="Gloss_9_"
   opacity="0.15">
				<g
   id="g483">
					<g
   id="g485">
						<linearGradient
   id="SVGID_4_"
   gradientUnits="userSpaceOnUse"
   x1="13.4307"
   y1="11.7725"
   x2="45.4609"
   y2="11.7725">
							<stop
   offset="0"
   style="stop-color:#FFFFFF"
   id="stop488" />
							<stop
   offset="1"
   style="stop-color:#FFFFFF"
   id="stop490" />
						</linearGradient>
						<path
   fill="url(#SVGID_4_)"
   d="M28.139,12.667c-0.593-2.931-3.185-4.121-6.29-4.121h-3.424v1.927h-4.138        c-0.473,0-0.856,1.061-0.856,1.535c0,0.473,0.383,1.535,0.856,1.535h4.138V15h27.037v-2.333H28.139z"
   id="path492" />
					</g>
				</g>
			</g>
		</g>
		<path
   display="inline"
   fill="#767875"
   d="M49.08,0.034H9.233c-2.712,0-4.919,2.207-4.919,4.92v4.202h-2.27    C0.917,9.156,0,10.073,0,11.2v8.521c0,1.127,0.917,2.043,2.044,2.043h2.27v3.258c0,2.713,2.207,4.92,4.919,4.92H49.08    c2.713,0,4.92-2.207,4.92-4.92V4.954C54,2.241,51.793,0.034,49.08,0.034z M2.357,19.406v-7.893h1.957v7.893H2.357z M51.559,25.021    c0,1.366-1.112,2.479-2.479,2.479H9.233c-1.366,0-2.478-1.112-2.478-2.479V4.954c0-1.367,1.112-2.479,2.478-2.479H49.08    c1.366,0,2.479,1.112,2.479,2.479V25.021z"
   id="path494" />
	</g>
	<g
   id="_x34_0_x25__Charge">
		<g
   id="Charge_13_"
   display="inline">
			<g
   id="Charge_level_3_">
				<path
   fill="#F26522"
   d="M34.799,23.301c0,0.662,0.537,1.199,1.199,1.199h3.014c0.662,0,1.199-0.537,1.199-1.199v-4.009h-5.412      V23.301z"
   id="path499" />
				<path
   fill="#F26522"
   d="M40.211,6.629c0-0.662-0.537-1.198-1.199-1.198h-3.014c-0.662,0-1.199,0.537-1.199,1.198v4.037h5.412      V6.629z"
   id="path501" />
				<path
   fill="#F26522"
   d="M47.359,5.431h-3.014c-0.662,0-1.199,0.537-1.199,1.198v4.037h2.314c1.104,0,2,0.896,2,2v4.625      c0,1.104-0.896,2-2,2h-2.314v4.009c0,0.662,0.537,1.199,1.199,1.199h3.014c0.662,0,1.199-0.537,1.199-1.199V6.629      C48.559,5.968,48.021,5.431,47.359,5.431z"
   id="path503" />
				<rect
   x="31.862"
   y="12.667"
   fill="#767875"
   width="2.937"
   height="4.625"
   id="rect505" />
				<rect
   x="40.211"
   y="12.667"
   fill="#767875"
   width="2.936"
   height="4.625"
   id="rect507" />
				<rect
   x="15.167"
   y="10.472"
   fill="#767875"
   width="2.937"
   height="3.07"
   id="rect509" />
				<path
   fill="#767875"
   d="M23.515,8.688v12.557c1.136-0.181,2.143-0.562,2.937-1.184V9.887C25.657,9.261,24.65,8.873,23.515,8.688      z"
   id="path511" />
				<rect
   x="15.167"
   y="16.387"
   fill="#767875"
   width="2.937"
   height="3.071"
   id="rect513" />
				<path
   fill="#767875"
   d="M14.287,10.472c-0.473,0-0.856,1.061-0.856,1.535c0,0.473,0.383,1.535,0.856,1.535h0.88v-3.07H14.287z"
   id="path515" />
				<path
   fill="#767875"
   d="M14.287,16.387c-0.473,0-0.856,1.064-0.856,1.536c0,0.473,0.383,1.535,0.856,1.535h0.88v-3.071H14.287z"
   id="path517" />
				<path
   fill="#767875"
   d="M21.849,8.545h-3.424v1.927h-0.321v3.07h0.321v2.845h-0.321v3.071h0.321v1.928h3.424      c0.58,0,1.132-0.056,1.666-0.141V8.688C22.98,8.602,22.428,8.545,21.849,8.545z"
   id="path519" />
				<path
   fill="#767875"
   d="M28.139,12.667c-0.247-1.22-0.854-2.124-1.688-2.78v10.175c0.833-0.651,1.44-1.549,1.688-2.77h3.724      v-4.625H28.139z"
   id="path521" />
				<rect
   x="34.799"
   y="12.667"
   fill="#767875"
   width="5.412"
   height="4.625"
   id="rect523" />
				<rect
   x="43.146"
   y="12.667"
   fill="#767875"
   width="2.314"
   height="4.625"
   id="rect525" />
			</g>
			<g
   id="Gloss_7_"
   opacity="0.15">
				<g
   id="g528">
					<g
   id="g530">
						<linearGradient
   id="SVGID_5_"
   gradientUnits="userSpaceOnUse"
   x1="13.4307"
   y1="11.7725"
   x2="45.4609"
   y2="11.7725">
							<stop
   offset="0"
   style="stop-color:#FFFFFF"
   id="stop533" />
							<stop
   offset="1"
   style="stop-color:#FFFFFF"
   id="stop535" />
						</linearGradient>
						<path
   fill="url(#SVGID_5_)"
   d="M28.139,12.667c-0.593-2.931-3.185-4.121-6.29-4.121h-3.424v1.927h-4.138        c-0.473,0-0.856,1.061-0.856,1.535c0,0.473,0.383,1.535,0.856,1.535h4.138V15h27.037v-2.333H28.139z"
   id="path537" />
					</g>
				</g>
			</g>
		</g>
		<path
   display="inline"
   fill="#767875"
   d="M49.08,0.034H9.233c-2.712,0-4.919,2.207-4.919,4.92v4.202h-2.27    C0.917,9.156,0,10.073,0,11.2v8.521c0,1.127,0.917,2.043,2.044,2.043h2.27v3.258c0,2.713,2.207,4.92,4.919,4.92H49.08    c2.713,0,4.92-2.207,4.92-4.92V4.954C54,2.241,51.793,0.034,49.08,0.034z M2.357,19.406v-7.893h1.957v7.893H2.357z M51.559,25.021    c0,1.366-1.112,2.479-2.479,2.479H9.233c-1.366,0-2.478-1.112-2.478-2.479V4.954c0-1.367,1.112-2.479,2.478-2.479H49.08    c1.366,0,2.479,1.112,2.479,2.479V25.021z"
   id="path539" />
	</g>
	<g
   id="_x36_0_x25__Charge">
		<g
   id="Charge_12_"
   display="inline">
			<g
   id="Charge_level_2_">
				<path
   fill="#767875"
   d="M29.575,10.667h2.287V6.629c0-0.662-0.536-1.198-1.198-1.198H27.65c-0.662,0-1.199,0.537-1.199,1.198      v0.907C27.859,8.242,28.936,9.298,29.575,10.667z"
   id="path544" />
				<path
   fill="#767875"
   d="M26.451,22.426v0.875c0,0.662,0.537,1.199,1.199,1.199h3.014c0.662,0,1.198-0.537,1.198-1.199v-4.009      h-2.28C28.944,20.678,27.871,21.73,26.451,22.426z"
   id="path546" />
				<path
   fill="#767875"
   d="M34.799,23.301c0,0.662,0.537,1.199,1.199,1.199h3.014c0.662,0,1.199-0.537,1.199-1.199v-4.009h-5.412      V23.301z"
   id="path548" />
				<path
   fill="#767875"
   d="M40.211,6.629c0-0.662-0.537-1.198-1.199-1.198h-3.014c-0.662,0-1.199,0.537-1.199,1.198v4.037h5.412      V6.629z"
   id="path550" />
				<path
   fill="#767875"
   d="M47.359,5.431h-3.014c-0.662,0-1.199,0.537-1.199,1.198v4.037h2.314c1.104,0,2,0.896,2,2v4.625      c0,1.104-0.896,2-2,2h-2.314v4.009c0,0.662,0.537,1.199,1.199,1.199h3.014c0.662,0,1.199-0.537,1.199-1.199V6.629      C48.559,5.968,48.021,5.431,47.359,5.431z"
   id="path552" />
				<rect
   x="31.862"
   y="12.667"
   fill="#767875"
   width="2.937"
   height="4.625"
   id="rect554" />
				<rect
   x="40.211"
   y="12.667"
   fill="#767875"
   width="2.936"
   height="4.625"
   id="rect556" />
				<rect
   x="15.167"
   y="10.472"
   fill="#767875"
   width="2.937"
   height="3.07"
   id="rect558" />
				<path
   fill="#767875"
   d="M23.515,8.688v12.557c1.136-0.181,2.143-0.562,2.937-1.184V9.887C25.657,9.261,24.65,8.873,23.515,8.688      z"
   id="path560" />
				<rect
   x="15.167"
   y="16.387"
   fill="#767875"
   width="2.937"
   height="3.071"
   id="rect562" />
				<path
   fill="#767875"
   d="M14.287,10.472c-0.473,0-0.856,1.061-0.856,1.535c0,0.473,0.383,1.535,0.856,1.535h0.88v-3.07H14.287z"
   id="path564" />
				<path
   fill="#767875"
   d="M14.287,16.387c-0.473,0-0.856,1.064-0.856,1.536c0,0.473,0.383,1.535,0.856,1.535h0.88v-3.071H14.287z"
   id="path566" />
				<path
   fill="#767875"
   d="M21.849,8.545h-3.424v1.927h-0.321v3.07h0.321v2.845h-0.321v3.071h0.321v1.928h3.424      c0.58,0,1.132-0.056,1.666-0.141V8.688C22.98,8.602,22.428,8.545,21.849,8.545z"
   id="path568" />
				<path
   fill="#767875"
   d="M28.139,12.667c-0.247-1.22-0.854-2.124-1.688-2.78v10.175c0.833-0.651,1.44-1.549,1.688-2.77h3.724      v-4.625H28.139z"
   id="path570" />
				<rect
   x="34.799"
   y="12.667"
   fill="#767875"
   width="5.412"
   height="4.625"
   id="rect572" />
				<rect
   x="43.146"
   y="12.667"
   fill="#767875"
   width="2.314"
   height="4.625"
   id="rect574" />
			</g>
			<g
   id="Gloss_5_"
   opacity="0.15">
				<g
   id="g577">
					<g
   id="g579">
						<linearGradient
   id="SVGID_6_"
   gradientUnits="userSpaceOnUse"
   x1="13.4307"
   y1="11.7725"
   x2="45.4609"
   y2="11.7725">
							<stop
   offset="0"
   style="stop-color:#FFFFFF"
   id="stop582" />
							<stop
   offset="1"
   style="stop-color:#FFFFFF"
   id="stop584" />
						</linearGradient>
						<path
   fill="url(#SVGID_6_)"
   d="M28.139,12.667c-0.593-2.931-3.185-4.121-6.29-4.121h-3.424v1.927h-4.138        c-0.473,0-0.856,1.061-0.856,1.535c0,0.473,0.383,1.535,0.856,1.535h4.138V15h27.037v-2.333H28.139z"
   id="path586" />
					</g>
				</g>
			</g>
		</g>
		<path
   display="inline"
   fill="#767875"
   d="M49.08,0.034H9.233c-2.712,0-4.919,2.207-4.919,4.92v4.202h-2.27    C0.917,9.156,0,10.073,0,11.2v8.521c0,1.127,0.917,2.043,2.044,2.043h2.27v3.258c0,2.713,2.207,4.92,4.919,4.92H49.08    c2.713,0,4.92-2.207,4.92-4.92V4.954C54,2.241,51.793,0.034,49.08,0.034z M2.357,19.406v-7.893h1.957v7.893H2.357z M51.559,25.021    c0,1.366-1.112,2.479-2.479,2.479H9.233c-1.366,0-2.478-1.112-2.478-2.479V4.954c0-1.367,1.112-2.479,2.478-2.479H49.08    c1.366,0,2.479,1.112,2.479,2.479V25.021z"
   id="path588" />
	</g>
	<g
   id="_x38_0_x25__Charge">
		<g
   id="Charge_11_"
   display="inline">
			<g
   id="Charge_level_1_">
				<path
   fill="#767875"
   d="M18.424,23.386c-0.106,0-0.208-0.015-0.31-0.03c0.03,0.635,0.546,1.145,1.188,1.145h3.015      c0.661,0,1.198-0.537,1.198-1.199v-0.03c-0.532,0.068-1.082,0.115-1.666,0.115H18.424z"
   id="path593" />
				<path
   fill="#767875"
   d="M21.849,6.545c0.583,0,1.132,0.049,1.666,0.122V6.629c0-0.662-0.537-1.198-1.198-1.198h-3.015      c-0.642,0-1.158,0.509-1.188,1.145c0.102-0.016,0.204-0.031,0.31-0.031H21.849z"
   id="path595" />
				<path
   fill="#767875"
   d="M29.575,10.667h2.287V6.629c0-0.662-0.536-1.198-1.198-1.198H27.65c-0.662,0-1.199,0.537-1.199,1.198      v0.907C27.859,8.242,28.936,9.298,29.575,10.667z"
   id="path597" />
				<path
   fill="#767875"
   d="M26.451,22.426v0.875c0,0.662,0.537,1.199,1.199,1.199h3.014c0.662,0,1.198-0.537,1.198-1.199v-4.009      h-2.28C28.944,20.678,27.871,21.73,26.451,22.426z"
   id="path599" />
				<path
   fill="#767875"
   d="M34.799,23.301c0,0.662,0.537,1.199,1.199,1.199h3.014c0.662,0,1.199-0.537,1.199-1.199v-4.009h-5.412      V23.301z"
   id="path601" />
				<path
   fill="#767875"
   d="M40.211,6.629c0-0.662-0.537-1.198-1.199-1.198h-3.014c-0.662,0-1.199,0.537-1.199,1.198v4.037h5.412      V6.629z"
   id="path603" />
				<path
   fill="#767875"
   d="M47.359,5.431h-3.014c-0.662,0-1.199,0.537-1.199,1.198v4.037h2.314c1.104,0,2,0.896,2,2v4.625      c0,1.104-0.896,2-2,2h-2.314v4.009c0,0.662,0.537,1.199,1.199,1.199h3.014c0.662,0,1.199-0.537,1.199-1.199V6.629      C48.559,5.968,48.021,5.431,47.359,5.431z"
   id="path605" />
				<rect
   x="31.862"
   y="12.667"
   fill="#767875"
   width="2.937"
   height="4.625"
   id="rect607" />
				<rect
   x="40.211"
   y="12.667"
   fill="#767875"
   width="2.936"
   height="4.625"
   id="rect609" />
				<rect
   x="15.167"
   y="10.472"
   fill="#767875"
   width="2.937"
   height="3.07"
   id="rect611" />
				<path
   fill="#767875"
   d="M23.515,8.688v12.557c1.136-0.181,2.143-0.562,2.937-1.184V9.887C25.657,9.261,24.65,8.873,23.515,8.688      z"
   id="path613" />
				<rect
   x="15.167"
   y="16.387"
   fill="#767875"
   width="2.937"
   height="3.071"
   id="rect615" />
				<path
   fill="#767875"
   d="M14.287,10.472c-0.473,0-0.856,1.061-0.856,1.535c0,0.473,0.383,1.535,0.856,1.535h0.88v-3.07H14.287z"
   id="path617" />
				<path
   fill="#767875"
   d="M14.287,16.387c-0.473,0-0.856,1.064-0.856,1.536c0,0.473,0.383,1.535,0.856,1.535h0.88v-3.071H14.287z"
   id="path619" />
				<path
   fill="#767875"
   d="M21.849,8.545h-3.424v1.927h-0.321v3.07h0.321v2.845h-0.321v3.071h0.321v1.928h3.424      c0.58,0,1.132-0.056,1.666-0.141V8.688C22.98,8.602,22.428,8.545,21.849,8.545z"
   id="path621" />
				<path
   fill="#767875"
   d="M28.139,12.667c-0.247-1.22-0.854-2.124-1.688-2.78v10.175c0.833-0.651,1.44-1.549,1.688-2.77h3.724      v-4.625H28.139z"
   id="path623" />
				<rect
   x="34.799"
   y="12.667"
   fill="#767875"
   width="5.412"
   height="4.625"
   id="rect625" />
				<rect
   x="43.146"
   y="12.667"
   fill="#767875"
   width="2.314"
   height="4.625"
   id="rect627" />
			</g>
			<g
   id="Gloss_3_"
   opacity="0.15">
				<g
   id="g630">
					<g
   id="g632">
						<linearGradient
   id="SVGID_7_"
   gradientUnits="userSpaceOnUse"
   x1="13.4307"
   y1="11.7725"
   x2="45.4609"
   y2="11.7725">
							<stop
   offset="0"
   style="stop-color:#FFFFFF"
   id="stop635" />
							<stop
   offset="1"
   style="stop-color:#FFFFFF"
   id="stop637" />
						</linearGradient>
						<path
   fill="url(#SVGID_7_)"
   d="M28.139,12.667c-0.593-2.931-3.185-4.121-6.29-4.121h-3.424v1.927h-4.138        c-0.473,0-0.856,1.061-0.856,1.535c0,0.473,0.383,1.535,0.856,1.535h4.138V15h27.037v-2.333H28.139z"
   id="path639" />
					</g>
				</g>
			</g>
		</g>
		<path
   display="inline"
   fill="#767875"
   d="M49.08,0.034H9.233c-2.712,0-4.919,2.207-4.919,4.92v4.202h-2.27    C0.917,9.156,0,10.073,0,11.2v8.521c0,1.127,0.917,2.043,2.044,2.043h2.27v3.258c0,2.713,2.207,4.92,4.919,4.92H49.08    c2.713,0,4.92-2.207,4.92-4.92V4.954C54,2.241,51.793,0.034,49.08,0.034z M2.357,19.406v-7.893h1.957v7.893H2.357z M51.559,25.021    c0,1.366-1.112,2.479-2.479,2.479H9.233c-1.366,0-2.478-1.112-2.478-2.479V4.954c0-1.367,1.112-2.479,2.478-2.479H49.08    c1.366,0,2.479,1.112,2.479,2.479V25.021z"
   id="path641" />
	</g>
	<g
   id="_x31_00_x25__charge">
		<g
   id="Charge_8_"
   display="inline">
			<g
   id="Charge_level">
				<path
   fill="#767875"
   d="M11.431,17.923c0-0.846,0.394-2.194,1.292-2.958c-0.898-0.764-1.292-2.112-1.292-2.958      c0-1.232,0.838-3.535,2.856-3.535h0.88V6.629c0-0.662-0.537-1.198-1.198-1.198h-3.014c-0.662,0-1.199,0.537-1.199,1.198v16.671      c0,0.662,0.537,1.199,1.199,1.199h3.014c0.662,0,1.198-0.537,1.198-1.199v-1.843h-0.88      C12.269,21.458,11.431,19.155,11.431,17.923z"
   id="path646" />
				<path
   fill="#767875"
   d="M18.424,23.386c-0.106,0-0.208-0.015-0.31-0.03c0.03,0.635,0.546,1.145,1.188,1.145h3.015      c0.661,0,1.198-0.537,1.198-1.199v-0.03c-0.532,0.068-1.082,0.115-1.666,0.115H18.424z"
   id="path648" />
				<path
   fill="#767875"
   d="M21.849,6.545c0.583,0,1.132,0.049,1.666,0.122V6.629c0-0.662-0.537-1.198-1.198-1.198h-3.015      c-0.642,0-1.158,0.509-1.188,1.145c0.102-0.016,0.204-0.031,0.31-0.031H21.849z"
   id="path650" />
				<path
   fill="#767875"
   d="M29.575,10.667h2.287V6.629c0-0.662-0.536-1.198-1.198-1.198H27.65c-0.662,0-1.199,0.537-1.199,1.198      v0.907C27.859,8.242,28.936,9.298,29.575,10.667z"
   id="path652" />
				<path
   fill="#767875"
   d="M26.451,22.426v0.875c0,0.662,0.537,1.199,1.199,1.199h3.014c0.662,0,1.198-0.537,1.198-1.199v-4.009      h-2.28C28.944,20.678,27.871,21.73,26.451,22.426z"
   id="path654" />
				<path
   fill="#767875"
   d="M34.799,23.301c0,0.662,0.537,1.199,1.199,1.199h3.014c0.662,0,1.199-0.537,1.199-1.199v-4.009h-5.412      V23.301z"
   id="path656" />
				<path
   fill="#767875"
   d="M40.211,6.629c0-0.662-0.537-1.198-1.199-1.198h-3.014c-0.662,0-1.199,0.537-1.199,1.198v4.037h5.412      V6.629z"
   id="path658" />
				<path
   fill="#767875"
   d="M47.359,5.431h-3.014c-0.662,0-1.199,0.537-1.199,1.198v4.037h2.314c1.104,0,2,0.896,2,2v4.625      c0,1.104-0.896,2-2,2h-2.314v4.009c0,0.662,0.537,1.199,1.199,1.199h3.014c0.662,0,1.199-0.537,1.199-1.199V6.629      C48.559,5.968,48.021,5.431,47.359,5.431z"
   id="path660" />
				<rect
   x="31.862"
   y="12.667"
   fill="#767875"
   width="2.937"
   height="4.625"
   id="rect662" />
				<rect
   x="40.211"
   y="12.667"
   fill="#767875"
   width="2.936"
   height="4.625"
   id="rect664" />
				<rect
   x="15.167"
   y="10.472"
   fill="#767875"
   width="2.937"
   height="3.07"
   id="rect666" />
				<path
   fill="#767875"
   d="M23.515,8.688v12.557c1.136-0.181,2.143-0.562,2.937-1.184V9.887C25.657,9.261,24.65,8.873,23.515,8.688      z"
   id="path668" />
				<rect
   x="15.167"
   y="16.387"
   fill="#767875"
   width="2.937"
   height="3.071"
   id="rect670" />
				<path
   fill="#767875"
   d="M14.287,10.472c-0.473,0-0.856,1.061-0.856,1.535c0,0.473,0.383,1.535,0.856,1.535h0.88v-3.07H14.287z"
   id="path672" />
				<path
   fill="#767875"
   d="M14.287,16.387c-0.473,0-0.856,1.064-0.856,1.536c0,0.473,0.383,1.535,0.856,1.535h0.88v-3.071H14.287z"
   id="path674" />
				<path
   fill="#767875"
   d="M21.849,8.545h-3.424v1.927h-0.321v3.07h0.321v2.845h-0.321v3.071h0.321v1.928h3.424      c0.58,0,1.132-0.056,1.666-0.141V8.688C22.98,8.602,22.428,8.545,21.849,8.545z"
   id="path676" />
				<path
   fill="#767875"
   d="M28.139,12.667c-0.247-1.22-0.854-2.124-1.688-2.78v10.175c0.833-0.651,1.44-1.549,1.688-2.77h3.724      v-4.625H28.139z"
   id="path678" />
				<rect
   x="34.799"
   y="12.667"
   fill="#767875"
   width="5.412"
   height="4.625"
   id="rect680" />
				<rect
   x="43.146"
   y="12.667"
   fill="#767875"
   width="2.314"
   height="4.625"
   id="rect682" />
			</g>
			<g
   id="Gloss_2_"
   opacity="0.15">
				<g
   id="g685">
					<g
   id="g687">
						<linearGradient
   id="SVGID_8_"
   gradientUnits="userSpaceOnUse"
   x1="13.4307"
   y1="11.7725"
   x2="45.4609"
   y2="11.7725">
							<stop
   offset="0"
   style="stop-color:#FFFFFF"
   id="stop690" />
							<stop
   offset="1"
   style="stop-color:#FFFFFF"
   id="stop692" />
						</linearGradient>
						<path
   fill="url(#SVGID_8_)"
   d="M28.139,12.667c-0.593-2.931-3.185-4.121-6.29-4.121h-3.424v1.927h-4.138        c-0.473,0-0.856,1.061-0.856,1.535c0,0.473,0.383,1.535,0.856,1.535h4.138V15h27.037v-2.333H28.139z"
   id="path694" />
					</g>
				</g>
			</g>
		</g>
		<path
   display="inline"
   fill="#767875"
   d="M49.08,0.034H9.233c-2.712,0-4.919,2.207-4.919,4.92v4.202h-2.27    C0.917,9.156,0,10.073,0,11.2v8.521c0,1.127,0.917,2.043,2.044,2.043h2.27v3.258c0,2.713,2.207,4.92,4.919,4.92H49.08    c2.713,0,4.92-2.207,4.92-4.92V4.954C54,2.241,51.793,0.034,49.08,0.034z M2.357,19.406v-7.893h1.957v7.893H2.357z M51.559,25.021    c0,1.366-1.112,2.479-2.479,2.479H9.233c-1.366,0-2.478-1.112-2.478-2.479V4.954c0-1.367,1.112-2.479,2.478-2.479H49.08    c1.366,0,2.479,1.112,2.479,2.479V25.021z"
   id="path696" />
	</g>
	<g
   id="Guides">
	</g>
	<g
   id="_x31_00_x25_">
		<rect
   x="9.755"
   y="5.476"
   fill="none"
   stroke="#8CC63F"
   stroke-width="0.25"
   width="38.803"
   height="19.024"
   id="rect700" />
		<path
   display="inline"
   fill="#767875"
   d="M49.08,0.034H9.233c-2.712,0-4.919,2.207-4.919,4.92v4.202h-2.27    C0.917,9.156,0,10.073,0,11.2v8.521c0,1.127,0.917,2.043,2.044,2.043h2.27v3.258c0,2.713,2.207,4.92,4.919,4.92H49.08    c2.713,0,4.92-2.207,4.92-4.92V4.954C54,2.241,51.793,0.034,49.08,0.034z M2.357,19.406v-7.893h1.957v7.893H2.357z M51.559,25.021    c0,1.366-1.112,2.479-2.479,2.479H9.233c-1.366,0-2.478-1.112-2.478-2.479V4.954c0-1.367,1.112-2.479,2.478-2.479H49.08    c1.366,0,2.479,1.112,2.479,2.479V25.021z"
   id="path702" />
		<g
   display="inline"
   id="g704">
			<path
   fill="#767875"
   d="M9.755,23.301V6.629c0-0.662,0.537-1.198,1.199-1.198h3.014c0.662,0,1.198,0.537,1.198,1.198v16.671     c0,0.662-0.537,1.199-1.198,1.199h-3.014C10.292,24.5,9.755,23.963,9.755,23.301z"
   id="path706" />
		</g>
		<g
   display="inline"
   id="g708">
			<path
   fill="#767875"
   d="M18.104,23.301V6.629c0-0.662,0.537-1.198,1.198-1.198h3.015c0.661,0,1.198,0.537,1.198,1.198v16.671     c0,0.662-0.537,1.199-1.198,1.199h-3.015C18.641,24.5,18.104,23.963,18.104,23.301z"
   id="path710" />
		</g>
		<g
   display="inline"
   id="g712">
			<path
   fill="#767875"
   d="M26.451,23.301V6.629c0-0.662,0.537-1.198,1.199-1.198h3.014c0.662,0,1.198,0.537,1.198,1.198v16.671     c0,0.662-0.536,1.199-1.198,1.199H27.65C26.988,24.5,26.451,23.963,26.451,23.301z"
   id="path714" />
		</g>
		<g
   display="inline"
   id="g716">
			<path
   fill="#767875"
   d="M34.799,23.301V6.629c0-0.662,0.537-1.198,1.199-1.198h3.014c0.662,0,1.199,0.537,1.199,1.198v16.671     c0,0.662-0.537,1.199-1.199,1.199h-3.014C35.336,24.5,34.799,23.963,34.799,23.301z"
   id="path718" />
		</g>
		<g
   display="inline"
   id="g720">
			<path
   fill="#767875"
   d="M43.588,23.335V6.664c0-0.662,0.537-1.198,1.199-1.198h3.014C48.463,5.466,49,6.002,49,6.664v16.671     c0,0.662-0.537,1.199-1.199,1.199h-3.014C44.125,24.534,43.588,23.997,43.588,23.335z"
   id="path722" />
		</g>
		<g
   id="Charge">
			<path
   display="inline"
   fill="#767875"
   d="M18.424,22.386c-0.552,0-1-0.447-1-1v-0.928h-3.138c-1.322,0-1.856-1.789-1.856-2.535     s0.534-2.536,1.856-2.536h3.138v-0.845h-3.138c-1.322,0-1.856-1.789-1.856-2.535s0.534-2.535,1.856-2.535h3.138V8.545     c0-0.552,0.448-1,1-1h3.424c3.633,0,6.155,1.49,7.054,4.121h16.559c0.553,0,1,0.448,1,1v4.625c0,0.553-0.447,1-1,1H28.902     c-0.897,2.614-3.419,4.094-7.054,4.094H18.424z"
   id="path725" />
			<path
   display="inline"
   fill="#FFFFFF"
   d="M21.849,8.545c3.105,0,5.697,1.19,6.29,4.121h17.322v4.625H28.139     c-0.593,2.931-3.185,4.094-6.29,4.094h-3.424v-1.928h-4.138c-0.473,0-0.856-1.062-0.856-1.535c0-0.472,0.383-1.536,0.856-1.536     h4.138v-2.845h-4.138c-0.473,0-0.856-1.062-0.856-1.535c0-0.474,0.383-1.535,0.856-1.535h4.138V8.545H21.849 M21.849,6.545     h-3.424c-1.08,0-1.96,0.856-1.999,1.927h-2.139c-2.018,0-2.856,2.302-2.856,3.535c0,0.845,0.394,2.194,1.292,2.958     c-0.898,0.764-1.292,2.113-1.292,2.958c0,1.232,0.838,3.535,2.856,3.535h2.139c0.038,1.071,0.918,1.928,1.999,1.928h3.424     c3.795,0,6.526-1.471,7.733-4.094h15.879c1.104,0,2-0.896,2-2v-4.625c0-1.104-0.896-2-2-2H29.575     C28.354,8.057,25.581,6.545,21.849,6.545L21.849,6.545z"
   id="path727" />
		</g>
	</g>
	<g
   id="Charge_single_copy"
   display="inline">
		<g
   id="g730">
			<path
   id="Charge_23_"
   fill="#767875"
   d="M18.482,11.443h-3.244c-0.371,0-0.671,0.832-0.671,1.203c0,0.371,0.3,1.204,0.671,1.204     h3.244v2.23h-3.244c-0.371,0-0.671,0.833-0.671,1.204s0.3,1.202,0.671,1.202h3.244v1.513h2.685c2.434,0,4.465-0.913,4.931-3.209     h17.284v-3.627H26.098c-0.465-2.297-2.497-3.23-4.931-3.23h-2.685V11.443z" />
			<path
   id="Charge_22_"
   fill="#FFFFFF"
   d="M21.167,9.933c2.434,0,4.465,0.933,4.931,3.23h17.284l0.051,3.627H26.098     c-0.465,2.296-2.497,3.209-4.931,3.209h-2.685v-1.513h-3.244c-0.371,0-0.671-0.831-0.671-1.202s0.3-1.204,0.671-1.204h3.244     v-2.23h-3.244c-0.371,0-0.671-0.833-0.671-1.204c0-0.371,0.3-1.203,0.671-1.203h3.244v-1.51H21.167 M21.167,8.365h-2.685     c-0.847,0-1.537,0.671-1.567,1.51h-1.677C13.656,9.875,13,11.68,13,12.646c0,0.663,0.309,1.72,1.013,2.318     c-0.705,0.6-1.013,1.657-1.013,2.32c0,0.966,0.656,2.771,2.239,2.771h1.677c0.03,0.84,0.719,1.511,1.567,1.511h2.685     c2.976,0,5.116-1.152,6.062-3.209h16.203c0.865,0,1.567-0.702,1.567-1.567v-3.627c0-0.866-0.702-1.567-1.567-1.567H27.224     C26.267,9.549,24.092,8.365,21.167,8.365L21.167,8.365z" />
		</g>
		<g
   opacity="0.15"
   id="g734">
			<g
   id="g736">
				<g
   id="g738">
					<linearGradient
   id="SVGID_9_"
   gradientUnits="userSpaceOnUse"
   x1="14.5679"
   y1="12.4629"
   x2="43.4326"
   y2="12.4629">
						<stop
   offset="0"
   style="stop-color:#FFFFFF"
   id="stop741" />
						<stop
   offset="1"
   style="stop-color:#FFFFFF"
   id="stop743" />
					</linearGradient>
					<path
   fill="url(#SVGID_9_)"
   d="M26.098,13.163c-0.465-2.297-2.497-3.23-4.931-3.23h-2.685v1.51h-3.244       c-0.371,0-0.671,0.832-0.671,1.203c0,0.371,0.3,1.204,0.671,1.204h3.244v1.143h24.95v-1.83H26.098z"
   id="path745" />
				</g>
			</g>
		</g>
	</g>
</g>
<g
   id="Gloss">
	<g
   id="g748">
		<linearGradient
   id="SVGID_10_"
   gradientUnits="userSpaceOnUse"
   x1="0"
   y1="7.5171"
   x2="54"
   y2="7.5171">
			<stop
   offset="0"
   style="stop-color:#FFFFFF"
   id="stop751" />
			<stop
   offset="1"
   style="stop-color:#FFFFFF"
   id="stop753" />
		</linearGradient>
		<path
   opacity="0.2"
   fill="url(#SVGID_10_)"
   d="M49.08,0.034H9.233c-2.712,0-4.919,2.207-4.919,4.92v4.202h-2.27    C0.917,9.156,0,10.073,0,11.2V15h2.357v-3.487h1.957V15h2.441V4.954c0-1.367,1.112-2.479,2.478-2.479H49.08    c1.366,0,2.479,1.112,2.479,2.479V15H54V4.954C54,2.241,51.793,0.034,49.08,0.034z"
   id="path755" />
	</g>
</g>
</svg>